<?xml version="1.0" encoding="utf-8"?>
<!-- Generator: Adobe Illustrator 26.3.1, SVG Export Plug-In . SVG Version: 6.00 Build 0)  -->
<svg version="1.1" id="Ebene_1" xmlns="http://www.w3.org/2000/svg" xmlns:xlink="http://www.w3.org/1999/xlink" x="0px" y="0px"
	 viewBox="0 0 276 113" style="enable-background:new 0 0 276 113;" xml:space="preserve">
<style type="text/css">
	.st0{clip-path:url(#SVGID_00000125570070786812003940000002896606626379237561_);}
	.st1{clip-path:url(#SVGID_00000001665060802939525080000006064474911697597371_);fill:#FFFFFE;}
	.st2{clip-path:url(#SVGID_00000158742858222353396580000010055952313843951517_);}
	.st3{clip-path:url(#SVGID_00000181053770812751601310000017940691698280573625_);fill:#FFFFFE;}
	.st4{clip-path:url(#SVGID_00000149362444084413647350000008364102759938924930_);}
	.st5{clip-path:url(#SVGID_00000098188976658270592190000004240580069732209084_);fill:#FFFFFE;}
	.st6{clip-path:url(#SVGID_00000023242164270857601790000002703444477899802248_);}
	.st7{clip-path:url(#SVGID_00000009573544006537705380000008430562338791367813_);fill:#FFFFFE;}
	.st8{clip-path:url(#SVGID_00000036210730380148609180000005068243740661560254_);}
	.st9{clip-path:url(#SVGID_00000042725872457333478510000003703777577447378107_);fill:#FFFFFE;}
	.st10{clip-path:url(#SVGID_00000034083005032074585620000000018713598197645710_);}
	.st11{clip-path:url(#SVGID_00000006676554839531316060000010115296261683598747_);fill:#FFFFFE;}
	.st12{clip-path:url(#SVGID_00000162329448063598075750000017616131460519030170_);}
	.st13{clip-path:url(#SVGID_00000139282645299065300740000014354620689573805714_);fill:#FFFFFE;}
	.st14{clip-path:url(#SVGID_00000101097934460334626880000007265602813535044521_);}
	.st15{clip-path:url(#SVGID_00000013911968533455705440000017053788749506106807_);fill:#FFFFFE;}
	.st16{clip-path:url(#SVGID_00000075841449039814763240000005380839641194598079_);}
	.st17{clip-path:url(#SVGID_00000183239676458520210870000000987898731974409635_);fill:#FFFFFE;}
	.st18{clip-path:url(#SVGID_00000013875141406321243900000008349076573431958930_);fill:#FFFFFE;}
	.st19{clip-path:url(#SVGID_00000157299678166677988710000006216893170745768359_);}
	.st20{clip-path:url(#SVGID_00000060712351041715771100000008167887094137257117_);fill:#FFFFFE;}
	.st21{clip-path:url(#SVGID_00000129888771928121522270000009148052230267150507_);}
	.st22{clip-path:url(#SVGID_00000014627348765503545830000014375571558595602582_);fill:#FFFFFE;}
	.st23{clip-path:url(#SVGID_00000087413915559202782070000011329686509081697968_);}
	.st24{clip-path:url(#SVGID_00000111191356072790890440000009122177253050068377_);fill:#FFFFFE;}
	.st25{clip-path:url(#SVGID_00000013193494233583186680000002655882473539854212_);}
	.st26{clip-path:url(#SVGID_00000010994872265998999160000000562584763001133209_);fill:#FFFFFE;}
	.st27{clip-path:url(#SVGID_00000078750667291212196880000002533220090806748846_);}
	.st28{clip-path:url(#SVGID_00000078752415657010997440000007830978368217582995_);fill:#FFFFFE;}
	.st29{clip-path:url(#SVGID_00000053539503342052331080000016827368407317681068_);}
	.st30{clip-path:url(#SVGID_00000173854790625719523540000000468390492187744700_);fill:#FFFFFE;}
	.st31{clip-path:url(#SVGID_00000119825485604462709400000003799786728314313112_);}
	.st32{clip-path:url(#SVGID_00000116956074432404158550000007245653813977631679_);fill:#FFFFFE;}
	.st33{clip-path:url(#SVGID_00000023998820558399210010000009234194723764941453_);}
	.st34{clip-path:url(#SVGID_00000140718279546480236850000001943682268124670135_);fill:#FFFFFE;}
	.st35{clip-path:url(#SVGID_00000176002818061050449300000017769057824102865051_);}
	.st36{clip-path:url(#SVGID_00000049194781485228404550000009079021319199419805_);fill:#FFFFFE;}
	.st37{clip-path:url(#SVGID_00000082346319420022898740000004108997574028677039_);}
	.st38{clip-path:url(#SVGID_00000152230708593043988130000002042007518933054390_);fill:#FFFFFE;}
	.st39{clip-path:url(#SVGID_00000129201701619119082960000008170403508922120637_);}
	.st40{clip-path:url(#SVGID_00000071545918355959600130000005759723162901824692_);fill:#FFFFFE;}
	.st41{clip-path:url(#SVGID_00000123430121627340040390000014368878212630092936_);}
	.st42{clip-path:url(#SVGID_00000034794967692339664860000000616476278638509443_);fill:#FFFFFE;}
	.st43{clip-path:url(#SVGID_00000168797583107389636280000004168139960958415029_);}
	.st44{clip-path:url(#SVGID_00000137848803505393087420000012694873980411325854_);fill:#FFFFFE;}
	.st45{clip-path:url(#SVGID_00000147196222474173718330000002577801944461467322_);enable-background:new    ;}
	.st46{clip-path:url(#SVGID_00000022533096617588837990000004092173016521502638_);}
	.st47{clip-path:url(#SVGID_00000144305012678112504080000002638221973156135065_);}
	.st48{clip-path:url(#SVGID_00000142169954819465682200000011647006951087831478_);fill:#FFFFFE;}
	.st49{clip-path:url(#SVGID_00000168824480444942135870000013110815715603263679_);}
	.st50{clip-path:url(#SVGID_00000049915662882371075420000014929560355836315270_);}
	.st51{clip-path:url(#SVGID_00000039104523623991305190000008743161829562344085_);fill:#FFFFFE;}
</style>
<g id="Ebene_2_00000103260219229577470330000007906083335965956524_">
</g>
<g id="Ebene_1_00000114780347146312863340000016714143729378883768_">
	<g>
		<g>
			<g>
				<defs>
					<polyline id="SVGID_1_" points="125,14 139.7,14 139.7,16.3 127.8,16.3 127.8,23.8 139,23.8 139,26 127.8,26 127.8,34.2 
						140.3,34.2 140.3,36.5 125,36.5 125,14 					"/>
				</defs>
				<clipPath id="SVGID_00000099643598557395092330000010607098986569000377_">
					<use xlink:href="#SVGID_1_"  style="overflow:visible;"/>
				</clipPath>
				<g style="clip-path:url(#SVGID_00000099643598557395092330000010607098986569000377_);">
					<g>
						<defs>
							<rect id="SVGID_00000081616642340098373930000014041635020001869496_" x="-962" y="-41.5" width="1280" height="720"/>
						</defs>
						<clipPath id="SVGID_00000165920160417415164480000008443933602547119002_">
							<use xlink:href="#SVGID_00000081616642340098373930000014041635020001869496_"  style="overflow:visible;"/>
						</clipPath>
						
							<rect x="124" y="13" style="clip-path:url(#SVGID_00000165920160417415164480000008443933602547119002_);fill:#FFFFFE;" width="17.2" height="24.5"/>
					</g>
				</g>
			</g>
		</g>
		<g>
			<g>
				<defs>
					<path id="SVGID_00000140729313298037431000000017377768678365344657_" d="M144.3,35.3c-1-1.1-1.5-2.6-1.5-4.6V20h2.7v9.8
						c0,1.7,0.3,2.9,1,3.7c0.6,0.8,1.7,1.2,3,1.2c1.5,0,2.7-0.6,3.5-1.7c0.8-1.1,1.3-2.7,1.3-4.7V20h2.7v16.5h-2.6v-3.8h-0.1
						c-0.5,1.3-1.3,2.3-2.3,3s-2.1,1.1-3.4,1.1C146.7,36.9,145.3,36.4,144.3,35.3"/>
				</defs>
				<clipPath id="SVGID_00000144333473355602960040000003810289097676479368_">
					<use xlink:href="#SVGID_00000140729313298037431000000017377768678365344657_"  style="overflow:visible;"/>
				</clipPath>
				<g style="clip-path:url(#SVGID_00000144333473355602960040000003810289097676479368_);">
					<g>
						<defs>
							<rect id="SVGID_00000024720282287245309320000012372354489587562124_" x="-962" y="-41.5" width="1280" height="720"/>
						</defs>
						<clipPath id="SVGID_00000160875700831270240010000005498879122492347270_">
							<use xlink:href="#SVGID_00000024720282287245309320000012372354489587562124_"  style="overflow:visible;"/>
						</clipPath>
						
							<rect x="141.8" y="19" style="clip-path:url(#SVGID_00000160875700831270240010000005498879122492347270_);fill:#FFFFFE;" width="16.2" height="18.9"/>
					</g>
				</g>
			</g>
		</g>
		<g>
			<g>
				<defs>
					<path id="SVGID_00000056419069886405430250000010297923381280522924_" d="M171.3,21c0.7,0.8,1,2,1,3.5c0,0.4,0,0.8-0.1,1.2
						c0,0.4-0.1,0.8-0.2,1.1l-2.5,0.3c0.1-0.3,0.1-0.8,0.2-1.2c0-0.5,0.1-0.8,0.1-1.1c0-1-0.2-1.8-0.6-2.3c-0.4-0.5-1-0.8-1.8-0.8
						c-1.1,0-2.1,0.6-2.7,1.8c-0.7,1.2-1,2.8-1,4.8v8.2H161V20h2.6v3.6h0.1c0.4-1.2,1.1-2.2,1.9-2.9c0.8-0.7,1.7-1,2.8-1
						C169.6,19.7,170.6,20.2,171.3,21"/>
				</defs>
				<clipPath id="SVGID_00000114789447566539630660000014043955480596336025_">
					<use xlink:href="#SVGID_00000056419069886405430250000010297923381280522924_"  style="overflow:visible;"/>
				</clipPath>
				<g style="clip-path:url(#SVGID_00000114789447566539630660000014043955480596336025_);">
					<g>
						<defs>
							<rect id="SVGID_00000173146129515816635600000014259906334724983189_" x="-962" y="-41.5" width="1280" height="720"/>
						</defs>
						<clipPath id="SVGID_00000149381503447677232830000012392803032470919082_">
							<use xlink:href="#SVGID_00000173146129515816635600000014259906334724983189_"  style="overflow:visible;"/>
						</clipPath>
						
							<rect x="160" y="18.7" style="clip-path:url(#SVGID_00000149381503447677232830000012392803032470919082_);fill:#FFFFFE;" width="13.3" height="18.8"/>
					</g>
				</g>
			</g>
		</g>
		<g>
			<g>
				<defs>
					<path id="SVGID_00000015343569975166313280000011420544768342750098_" d="M176.2,34.6c-1.4-1.5-2.1-3.6-2.1-6.3
						c0-2.6,0.7-4.7,2.1-6.3s3.3-2.4,5.6-2.4s4.2,0.8,5.6,2.3c1.4,1.5,2.1,3.6,2.1,6.3s-0.7,4.8-2.1,6.4c-1.4,1.5-3.3,2.3-5.7,2.3
						C179.4,36.9,177.6,36.1,176.2,34.6z M185.6,33c0.9-1.1,1.3-2.7,1.3-4.7s-0.4-3.6-1.3-4.7c-0.9-1.1-2.1-1.7-3.6-1.7
						c-1.6,0-2.9,0.5-3.7,1.6c-0.9,1.1-1.3,2.6-1.3,4.7c0,2,0.4,3.6,1.3,4.7c0.9,1.1,2.1,1.7,3.7,1.7
						C183.5,34.6,184.7,34.1,185.6,33z"/>
				</defs>
				<clipPath id="SVGID_00000094579143671331368970000009276375870360935065_">
					<use xlink:href="#SVGID_00000015343569975166313280000011420544768342750098_"  style="overflow:visible;"/>
				</clipPath>
				<g style="clip-path:url(#SVGID_00000094579143671331368970000009276375870360935065_);">
					<g>
						<defs>
							<rect id="SVGID_00000135668335148940196410000007574047606892575663_" x="-962" y="-41.5" width="1280" height="720"/>
						</defs>
						<clipPath id="SVGID_00000173153225362115586020000003722586952073253780_">
							<use xlink:href="#SVGID_00000135668335148940196410000007574047606892575663_"  style="overflow:visible;"/>
						</clipPath>
						
							<rect x="173.1" y="18.7" style="clip-path:url(#SVGID_00000173153225362115586020000003722586952073253780_);fill:#FFFFFE;" width="17.4" height="19.3"/>
					</g>
				</g>
			</g>
		</g>
		<g>
			<g>
				<defs>
					<path id="SVGID_00000070817087894048820010000015044264691048610448_" d="M192.6,41.9V20h2.6v3.8h0.1c0.5-1.3,1.3-2.3,2.3-3.1
						c1-0.7,2.2-1.1,3.5-1.1c2,0,3.7,0.8,4.9,2.3c1.2,1.6,1.8,3.6,1.8,6.2s-0.6,4.7-1.9,6.3c-1.2,1.6-2.9,2.4-4.9,2.4
						c-1.3,0-2.5-0.3-3.4-1c-1-0.7-1.7-1.6-2.3-2.8h-0.1v8.8h-2.6V41.9z M203.8,23.6c-0.9-1.1-2-1.7-3.5-1.7c-1.6,0-2.8,0.6-3.7,1.7
						s-1.4,2.7-1.4,4.7c0,1.9,0.5,3.5,1.4,4.6s2.2,1.7,3.7,1.7s2.7-0.6,3.5-1.7c0.8-1.1,1.3-2.7,1.3-4.7
						C205.1,26.3,204.7,24.8,203.8,23.6z"/>
				</defs>
				<clipPath id="SVGID_00000052790889556804870470000011301413229091462335_">
					<use xlink:href="#SVGID_00000070817087894048820010000015044264691048610448_"  style="overflow:visible;"/>
				</clipPath>
				<g style="clip-path:url(#SVGID_00000052790889556804870470000011301413229091462335_);">
					<g>
						<defs>
							<rect id="SVGID_00000071533735564378262900000009556096871022189980_" x="-962" y="-41.5" width="1280" height="720"/>
						</defs>
						<clipPath id="SVGID_00000164483810071910383100000007416341571064690073_">
							<use xlink:href="#SVGID_00000071533735564378262900000009556096871022189980_"  style="overflow:visible;"/>
						</clipPath>
						
							<rect x="191.6" y="18.7" style="clip-path:url(#SVGID_00000164483810071910383100000007416341571064690073_);fill:#FFFFFE;" width="17.2" height="24.3"/>
					</g>
				</g>
			</g>
		</g>
		<g>
			<g>
				<defs>
					<path id="SVGID_00000156561259684493994850000003517499698932525215_" d="M212.2,34.6c-1.4-1.6-2.1-3.6-2.1-6.3
						c0-2.5,0.7-4.6,2.2-6.2c1.4-1.6,3.3-2.4,5.6-2.4c1.4,0,2.6,0.3,3.6,0.9s1.9,1.5,2.4,2.7c0.4,0.7,0.6,1.6,0.8,2.5s0.3,1.9,0.3,3
						h-12.2c0.1,1.8,0.6,3.2,1.5,4.3s2.2,1.6,3.7,1.6c1.2,0,2.2-0.3,3-0.9c0.8-0.6,1.4-1.5,1.9-2.7l2.2,0.8
						c-0.6,1.6-1.6,2.9-2.8,3.8c-1.2,0.9-2.7,1.3-4.4,1.3C215.5,36.9,213.6,36.1,212.2,34.6z M220.1,22.5c-0.7-0.4-1.5-0.7-2.4-0.7
						c-1.4,0-2.5,0.5-3.4,1.4s-1.4,2.1-1.5,3.7h9.4c0-0.5-0.1-1-0.2-1.4c-0.1-0.4-0.2-0.8-0.4-1.1C221.3,23.6,220.8,23,220.1,22.5z"
						/>
				</defs>
				<clipPath id="SVGID_00000047035197866824537790000016144916251886176423_">
					<use xlink:href="#SVGID_00000156561259684493994850000003517499698932525215_"  style="overflow:visible;"/>
				</clipPath>
				<g style="clip-path:url(#SVGID_00000047035197866824537790000016144916251886176423_);">
					<g>
						<defs>
							<rect id="SVGID_00000095326580055330814490000004510005281682485413_" x="-962" y="-41.5" width="1280" height="720"/>
						</defs>
						<clipPath id="SVGID_00000142174008595521552970000014085379887502479240_">
							<use xlink:href="#SVGID_00000095326580055330814490000004510005281682485413_"  style="overflow:visible;"/>
						</clipPath>
						
							<rect x="209.1" y="18.7" style="clip-path:url(#SVGID_00000142174008595521552970000014085379887502479240_);fill:#FFFFFE;" width="17.1" height="19.3"/>
					</g>
				</g>
			</g>
		</g>
		<g>
			<g>
				<defs>
					<path id="SVGID_00000071518995681982306520000009522094657516683692_" d="M239,35.8c-0.6-0.6-0.9-1.5-0.9-2.7V33H238
						c-0.5,1.2-1.2,2.2-2.2,2.9s-2.1,1-3.5,1c-1.6,0-2.8-0.4-3.7-1.2s-1.4-1.9-1.4-3.3c0-0.8,0.1-1.4,0.4-2c0.3-0.6,0.6-1.1,1.1-1.6
						c0.4-0.4,1-0.7,1.7-0.9c0.7-0.2,1.5-0.4,2.4-0.6l2.4-0.4c1-0.2,1.8-0.4,2.2-0.8c0.4-0.3,0.7-0.8,0.7-1.5c0-0.9-0.3-1.5-0.9-2
						c-0.6-0.5-1.4-0.8-2.5-0.8c-1.2,0-2.1,0.3-2.8,0.9s-1.2,1.6-1.6,2.9l-2.5-0.5c0.5-1.7,1.3-3.1,2.5-4s2.7-1.4,4.4-1.4
						c1.9,0,3.4,0.5,4.4,1.5s1.5,2.5,1.5,4.4v6.8c0,0.8,0.1,1.4,0.4,1.7c0.3,0.3,0.8,0.5,1.5,0.5c0.1,0,0.2,0,0.3,0s0.2,0,0.4,0v1.9
						c-0.2,0.1-0.4,0.1-0.7,0.2c-0.3,0-0.6,0.1-0.9,0.1C240.5,36.7,239.6,36.4,239,35.8z M230.8,34.1c0.6,0.5,1.3,0.8,2.3,0.8
						c1.5,0,2.8-0.6,3.7-1.7c0.9-1.1,1.4-2.6,1.4-4.4v-1.3c-0.2,0.2-0.5,0.4-0.9,0.5s-1,0.3-1.7,0.5l-2.2,0.4
						c-1.2,0.2-2.1,0.6-2.6,1c-0.5,0.5-0.8,1.2-0.8,2.1C230,32.9,230.3,33.6,230.8,34.1z"/>
				</defs>
				<clipPath id="SVGID_00000061444945713934894190000009566500670330605999_">
					<use xlink:href="#SVGID_00000071518995681982306520000009522094657516683692_"  style="overflow:visible;"/>
				</clipPath>
				<g style="clip-path:url(#SVGID_00000061444945713934894190000009566500670330605999_);">
					<g>
						<defs>
							<rect id="SVGID_00000117644777847518725000000012796438035910024091_" x="-962" y="-41.5" width="1280" height="720"/>
						</defs>
						<clipPath id="SVGID_00000039855348915495319620000010728473869317269666_">
							<use xlink:href="#SVGID_00000117644777847518725000000012796438035910024091_"  style="overflow:visible;"/>
						</clipPath>
						
							<rect x="226.3" y="18.7" style="clip-path:url(#SVGID_00000039855348915495319620000010728473869317269666_);fill:#FFFFFE;" width="18.1" height="19.3"/>
					</g>
				</g>
			</g>
		</g>
		<g>
			<g>
				<defs>
					<path id="SVGID_00000040560175177506094720000003766645762044414901_" d="M245.6,20h2.6v3.8h0.1c0.6-1.3,1.4-2.3,2.4-3.1
						c1-0.7,2.2-1.1,3.5-1.1c1.8,0,3.2,0.6,4.2,1.7s1.5,2.8,1.5,5v10.2h-2.6V27c0-1.8-0.3-3.1-0.9-3.9s-1.6-1.2-3-1.2
						c-1.5,0-2.7,0.6-3.6,1.7c-0.9,1.2-1.3,2.8-1.3,4.8v8.1h-2.7V20"/>
				</defs>
				<clipPath id="SVGID_00000097500796174286335000000006259903769108849300_">
					<use xlink:href="#SVGID_00000040560175177506094720000003766645762044414901_"  style="overflow:visible;"/>
				</clipPath>
				<g style="clip-path:url(#SVGID_00000097500796174286335000000006259903769108849300_);">
					<g>
						<defs>
							<rect id="SVGID_00000165222369473638721120000010659673137722464422_" x="-962" y="-41.5" width="1280" height="720"/>
						</defs>
						<clipPath id="SVGID_00000052799256963214482840000008361973978841138588_">
							<use xlink:href="#SVGID_00000165222369473638721120000010659673137722464422_"  style="overflow:visible;"/>
						</clipPath>
						
							<rect x="244.6" y="18.7" style="clip-path:url(#SVGID_00000052799256963214482840000008361973978841138588_);fill:#FFFFFE;" width="16.3" height="18.9"/>
					</g>
				</g>
			</g>
		</g>
		<g>
			<g>
				<defs>
					<path id="SVGID_00000049907168497202408200000004789585260627224979_" d="M125,68.1V45.5h8.3c2.6,0,4.6,0.5,5.9,1.4
						c1.3,0.9,2,2.3,2,4.2c0,1.3-0.4,2.4-1.2,3.3c-0.8,0.9-1.9,1.6-3.3,1.9l0,0c1.7,0.3,3,0.9,4,1.9s1.4,2.2,1.4,3.6
						c0,2.1-0.7,3.6-2,4.7c-1.3,1-3.3,1.6-5.9,1.6H125z M137.3,48.8c-0.8-0.6-2.1-0.9-3.8-0.9h-5.6v7.6h5.4c1.8,0,3.2-0.3,4-0.9
						c0.9-0.6,1.3-1.6,1.3-2.9C138.5,50.3,138.1,49.4,137.3,48.8z M137.9,58.6c-1-0.7-2.4-1-4.3-1h-5.8v8.1h6.2c1.9,0,3.2-0.3,4.1-1
						c0.9-0.7,1.3-1.7,1.3-3.2C139.3,60.2,138.9,59.2,137.9,58.6z"/>
				</defs>
				<clipPath id="SVGID_00000165928369962822432990000004603918484004051879_">
					<use xlink:href="#SVGID_00000049907168497202408200000004789585260627224979_"  style="overflow:visible;"/>
				</clipPath>
				<g style="clip-path:url(#SVGID_00000165928369962822432990000004603918484004051879_);">
					<g>
						<defs>
							<rect id="SVGID_00000168800232220033961880000009779459667621772722_" x="-962" y="-41.5" width="1280" height="720"/>
						</defs>
						<clipPath id="SVGID_00000008144386012359067430000013646931495799990662_">
							<use xlink:href="#SVGID_00000168800232220033961880000009779459667621772722_"  style="overflow:visible;"/>
						</clipPath>
						
							<rect x="124" y="44.5" style="clip-path:url(#SVGID_00000008144386012359067430000013646931495799990662_);fill:#FFFFFE;" width="19" height="24.5"/>
					</g>
				</g>
			</g>
		</g>
		<g>
			<g>
				<defs>
					<rect id="SVGID_00000036935046551833977060000009970035570704894096_" x="145.3" y="44.4" width="2.7" height="23.7"/>
				</defs>
				<clipPath id="SVGID_00000106125258417386553890000000256727504111230897_">
					<use xlink:href="#SVGID_00000036935046551833977060000009970035570704894096_"  style="overflow:visible;"/>
				</clipPath>
				
					<rect x="144.3" y="43.4" style="clip-path:url(#SVGID_00000106125258417386553890000000256727504111230897_);fill:#FFFFFE;" width="4.7" height="25.7"/>
			</g>
		</g>
		<g>
			<g>
				<defs>
					<path id="SVGID_00000036243489246427667740000004405924549419463574_" d="M153.2,66.1c-1.4-1.5-2.1-3.6-2.1-6.3
						c0-2.6,0.7-4.7,2.1-6.3c1.4-1.6,3.3-2.4,5.6-2.4s4.2,0.8,5.6,2.3c1.4,1.5,2.1,3.6,2.1,6.3s-0.7,4.8-2.1,6.4
						c-1.4,1.5-3.3,2.3-5.7,2.3C156.4,68.4,154.6,67.7,153.2,66.1z M162.6,64.5c0.9-1.1,1.3-2.7,1.3-4.7s-0.4-3.6-1.3-4.7
						c-0.9-1.1-2.1-1.7-3.6-1.7c-1.6,0-2.8,0.5-3.7,1.6s-1.3,2.6-1.3,4.7c0,2,0.4,3.6,1.3,4.7c0.9,1.1,2.1,1.7,3.7,1.7
						C160.5,66.1,161.7,65.6,162.6,64.5z"/>
				</defs>
				<clipPath id="SVGID_00000149357902928191449970000007838186742829283997_">
					<use xlink:href="#SVGID_00000036243489246427667740000004405924549419463574_"  style="overflow:visible;"/>
				</clipPath>
				<g style="clip-path:url(#SVGID_00000149357902928191449970000007838186742829283997_);">
					<g>
						<defs>
							<rect id="SVGID_00000129206037918162361300000017979070641628800436_" x="-962" y="-41.5" width="1280" height="720"/>
						</defs>
						<clipPath id="SVGID_00000055696916685040359400000005264813048783331774_">
							<use xlink:href="#SVGID_00000129206037918162361300000017979070641628800436_"  style="overflow:visible;"/>
						</clipPath>
						
							<rect x="150.1" y="50.2" style="clip-path:url(#SVGID_00000055696916685040359400000005264813048783331774_);fill:#FFFFFE;" width="17.4" height="19.3"/>
					</g>
				</g>
			</g>
		</g>
		<g>
			<g>
				<defs>
					<path id="SVGID_00000144310031054525932330000010108694905829716616_" d="M172.8,55.2c-0.9,1.1-1.4,2.7-1.4,4.6
						c0,2,0.5,3.5,1.4,4.7c0.9,1.1,2.2,1.7,3.8,1.7c1.2,0,2.3-0.3,3-1c0.8-0.7,1.4-1.7,1.8-3l2.4,0.7c-0.5,1.7-1.3,3.1-2.6,4.1
						s-2.9,1.5-4.7,1.5c-2.4,0-4.4-0.8-5.7-2.3c-1.4-1.5-2.1-3.6-2.1-6.3c0-2.6,0.7-4.6,2.2-6.2c1.5-1.6,3.4-2.4,5.7-2.4
						c1.9,0,3.4,0.5,4.6,1.6c1.2,1.1,2.1,2.6,2.6,4.6l-2.6,0.6c-0.3-1.5-0.9-2.6-1.6-3.3c-0.8-0.8-1.8-1.1-3-1.1
						C175,53.5,173.7,54.1,172.8,55.2"/>
				</defs>
				<clipPath id="SVGID_00000013154460785682491370000000926057772592395185_">
					<use xlink:href="#SVGID_00000144310031054525932330000010108694905829716616_"  style="overflow:visible;"/>
				</clipPath>
				<g style="clip-path:url(#SVGID_00000013154460785682491370000000926057772592395185_);">
					<g>
						<defs>
							<rect id="SVGID_00000174583688417998705210000013888424261919059875_" x="-962" y="-41.5" width="1280" height="720"/>
						</defs>
						<clipPath id="SVGID_00000008835687495252347520000010881493212193874359_">
							<use xlink:href="#SVGID_00000174583688417998705210000013888424261919059875_"  style="overflow:visible;"/>
						</clipPath>
						
							<rect x="167.7" y="50.2" style="clip-path:url(#SVGID_00000008835687495252347520000010881493212193874359_);fill:#FFFFFE;" width="17.2" height="19.3"/>
					</g>
				</g>
			</g>
		</g>
		<g>
			<g>
				<defs>
					<polyline id="SVGID_00000145049122690407433460000005027341494040494471_" points="198.2,68.1 192.7,58.9 189.4,62.2 
						189.4,68.1 186.7,68.1 186.7,44.4 189.4,44.4 189.4,59.5 197.2,51.5 200.3,51.5 194.6,57.4 201.2,68.1 198.2,68.1 					"/>
				</defs>
				<clipPath id="SVGID_00000153694903384555658820000005786703787493717404_">
					<use xlink:href="#SVGID_00000145049122690407433460000005027341494040494471_"  style="overflow:visible;"/>
				</clipPath>
				<g style="clip-path:url(#SVGID_00000153694903384555658820000005786703787493717404_);">
					<g>
						<defs>
							<rect id="SVGID_00000078006714387412650780000003936999219309835430_" x="-962" y="-41.5" width="1280" height="720"/>
						</defs>
						<clipPath id="SVGID_00000027583237571362829700000009617670894295722904_">
							<use xlink:href="#SVGID_00000078006714387412650780000003936999219309835430_"  style="overflow:visible;"/>
						</clipPath>
						
							<rect x="185.7" y="43.4" style="clip-path:url(#SVGID_00000027583237571362829700000009617670894295722904_);fill:#FFFFFE;" width="16.4" height="25.7"/>
					</g>
				</g>
			</g>
		</g>
		<g>
			<g>
				<defs>
					<path id="SVGID_00000003096075127706330040000013468245844708838023_" d="M205.5,55.2c-0.9,1.1-1.4,2.7-1.4,4.6
						c0,2,0.5,3.5,1.4,4.7c0.9,1.1,2.2,1.7,3.8,1.7c1.2,0,2.3-0.3,3-1c0.8-0.7,1.4-1.7,1.8-3l2.4,0.7c-0.5,1.7-1.3,3.1-2.6,4.1
						s-2.9,1.5-4.7,1.5c-2.4,0-4.4-0.8-5.7-2.3c-1.4-1.5-2.1-3.6-2.1-6.3c0-2.6,0.7-4.6,2.2-6.2c1.5-1.6,3.4-2.4,5.7-2.4
						c1.9,0,3.4,0.5,4.6,1.6c1.2,1.1,2.1,2.6,2.6,4.6l-2.6,0.6c-0.3-1.5-0.9-2.6-1.6-3.3c-0.8-0.8-1.8-1.1-3-1.1
						C207.6,53.5,206.4,54.1,205.5,55.2"/>
				</defs>
				<clipPath id="SVGID_00000131353450592269310880000010894262336203513236_">
					<use xlink:href="#SVGID_00000003096075127706330040000013468245844708838023_"  style="overflow:visible;"/>
				</clipPath>
				<g style="clip-path:url(#SVGID_00000131353450592269310880000010894262336203513236_);">
					<g>
						<defs>
							<rect id="SVGID_00000090269670092537248300000016366936383186563004_" x="-962" y="-41.5" width="1280" height="720"/>
						</defs>
						<clipPath id="SVGID_00000082354743824259728980000000839071737283668410_">
							<use xlink:href="#SVGID_00000090269670092537248300000016366936383186563004_"  style="overflow:visible;"/>
						</clipPath>
						
							<rect x="200.4" y="50.2" style="clip-path:url(#SVGID_00000082354743824259728980000000839071737283668410_);fill:#FFFFFE;" width="17.2" height="19.3"/>
					</g>
				</g>
			</g>
		</g>
		<g>
			<g>
				<defs>
					<path id="SVGID_00000068668425898143881660000003987380890629021861_" d="M219.4,44.4h2.7v10.9h0.1c0.6-1.3,1.4-2.3,2.4-3
						s2.2-1.1,3.4-1.1c1.8,0,3.2,0.6,4.2,1.7c1,1.1,1.5,2.8,1.5,5v10.2H231v-9.5c0-1.8-0.3-3.1-0.9-3.9c-0.6-0.8-1.6-1.2-3-1.2
						c-1.5,0-2.7,0.6-3.6,1.7c-0.9,1.2-1.3,2.8-1.3,4.8v8.1h-2.7V44.4"/>
				</defs>
				<clipPath id="SVGID_00000098198828210548554790000004379367595020426390_">
					<use xlink:href="#SVGID_00000068668425898143881660000003987380890629021861_"  style="overflow:visible;"/>
				</clipPath>
				<g style="clip-path:url(#SVGID_00000098198828210548554790000004379367595020426390_);">
					<g>
						<defs>
							<rect id="SVGID_00000055691497356160103850000003930095545866326413_" x="-962" y="-41.5" width="1280" height="720"/>
						</defs>
						<clipPath id="SVGID_00000157302812846430999020000014752493549558453406_">
							<use xlink:href="#SVGID_00000055691497356160103850000003930095545866326413_"  style="overflow:visible;"/>
						</clipPath>
						
							<rect x="218.4" y="43.4" style="clip-path:url(#SVGID_00000157302812846430999020000014752493549558453406_);fill:#FFFFFE;" width="16.3" height="25.7"/>
					</g>
				</g>
			</g>
		</g>
		<g>
			<g>
				<defs>
					<path id="SVGID_00000096759544172823533080000006877357155747123623_" d="M248.4,67.4c-0.6-0.6-0.9-1.5-0.9-2.7v-0.1h-0.1
						c-0.5,1.2-1.2,2.2-2.2,2.9c-1,0.7-2.1,1-3.5,1c-1.6,0-2.8-0.4-3.7-1.2c-0.9-0.8-1.4-1.9-1.4-3.3c0-0.8,0.1-1.4,0.4-2
						c0.3-0.6,0.6-1.1,1.1-1.6c0.4-0.4,1-0.7,1.7-0.9s1.5-0.4,2.4-0.6l2.4-0.4c1-0.2,1.8-0.4,2.2-0.8c0.4-0.3,0.7-0.8,0.7-1.5
						c0-0.9-0.3-1.5-0.9-2c-0.6-0.5-1.4-0.8-2.5-0.8c-1.2,0-2.1,0.3-2.8,0.9c-0.7,0.6-1.2,1.6-1.6,2.9l-2.5-0.5
						c0.5-1.7,1.3-3.1,2.5-4s2.7-1.4,4.4-1.4c1.9,0,3.4,0.5,4.4,1.5s1.5,2.5,1.5,4.4V64c0,0.8,0.1,1.4,0.4,1.7
						c0.3,0.3,0.8,0.5,1.5,0.5c0.1,0,0.2,0,0.3,0s0.2,0,0.4,0V68c-0.2,0.1-0.4,0.1-0.7,0.2c-0.3,0-0.6,0.1-0.9,0.1
						C249.9,68.3,249,68,248.4,67.4z M240.2,65.7c0.6,0.5,1.3,0.8,2.3,0.8c1.5,0,2.8-0.6,3.7-1.7s1.4-2.6,1.4-4.4v-1.3
						c-0.2,0.2-0.5,0.4-0.9,0.5s-1,0.3-1.7,0.5l-2.2,0.4c-1.2,0.2-2.1,0.6-2.6,1c-0.5,0.5-0.8,1.2-0.8,2.1S239.6,65.1,240.2,65.7z"
						/>
				</defs>
				<clipPath id="SVGID_00000017508700379084890420000011526612664650308525_">
					<use xlink:href="#SVGID_00000096759544172823533080000006877357155747123623_"  style="overflow:visible;"/>
				</clipPath>
				<g style="clip-path:url(#SVGID_00000017508700379084890420000011526612664650308525_);">
					<g>
						<defs>
							<rect id="SVGID_00000116947270846986050930000011140548227183982247_" x="-962" y="-41.5" width="1280" height="720"/>
						</defs>
						<clipPath id="SVGID_00000105409289052142977710000002611479660068042626_">
							<use xlink:href="#SVGID_00000116947270846986050930000011140548227183982247_"  style="overflow:visible;"/>
						</clipPath>
						
							<rect x="235.6" y="50.2" style="clip-path:url(#SVGID_00000105409289052142977710000002611479660068042626_);fill:#FFFFFE;" width="18.1" height="19.3"/>
					</g>
				</g>
			</g>
		</g>
		<g>
			<g>
				<defs>
					<path id="SVGID_00000089573771559160105540000006147200071075351952_" d="M254.9,47.4h3v-3.1h-3V47.4z M255,68.1h2.6V51.5H255
						V68.1z"/>
				</defs>
				<clipPath id="SVGID_00000044169712821787200210000009703899392960467096_">
					<use xlink:href="#SVGID_00000089573771559160105540000006147200071075351952_"  style="overflow:visible;"/>
				</clipPath>
				<g style="clip-path:url(#SVGID_00000044169712821787200210000009703899392960467096_);">
					<g>
						<defs>
							<rect id="SVGID_00000013156450797215521640000016387243688007958697_" x="-962" y="-41.5" width="1280" height="720"/>
						</defs>
						<clipPath id="SVGID_00000119113864912376793790000016344858950094122406_">
							<use xlink:href="#SVGID_00000013156450797215521640000016387243688007958697_"  style="overflow:visible;"/>
						</clipPath>
						
							<rect x="253.9" y="43.4" style="clip-path:url(#SVGID_00000119113864912376793790000016344858950094122406_);fill:#FFFFFE;" width="5" height="25.7"/>
					</g>
				</g>
			</g>
		</g>
		<g>
			<g>
				<defs>
					<path id="SVGID_00000111153162928419210890000011879344172338659473_" d="M261.7,51.5h2.6v3.8h0.1c0.6-1.3,1.4-2.3,2.4-3.1
						c1-0.7,2.2-1.1,3.5-1.1c1.8,0,3.2,0.6,4.2,1.7c1,1.1,1.5,2.8,1.5,5V68h-2.6v-9.5c0-1.8-0.3-3.1-0.9-3.9c-0.6-0.8-1.6-1.2-3-1.2
						c-1.5,0-2.7,0.6-3.6,1.7c-0.9,1.2-1.3,2.8-1.3,4.8V68h-2.7V51.5"/>
				</defs>
				<clipPath id="SVGID_00000085233233808023714310000016207632694704400259_">
					<use xlink:href="#SVGID_00000111153162928419210890000011879344172338659473_"  style="overflow:visible;"/>
				</clipPath>
				<g style="clip-path:url(#SVGID_00000085233233808023714310000016207632694704400259_);">
					<g>
						<defs>
							<rect id="SVGID_00000134238244319214963760000011593757537924135309_" x="-962" y="-41.5" width="1280" height="720"/>
						</defs>
						<clipPath id="SVGID_00000085956528111784667160000017634613065153965978_">
							<use xlink:href="#SVGID_00000134238244319214963760000011593757537924135309_"  style="overflow:visible;"/>
						</clipPath>
						
							<rect x="260.7" y="50.2" style="clip-path:url(#SVGID_00000085956528111784667160000017634613065153965978_);fill:#FFFFFE;" width="16.3" height="18.9"/>
					</g>
				</g>
			</g>
		</g>
		<g>
			<g>
				<defs>
					<path id="SVGID_00000093895229020030845870000000926902766693301648_" d="M126.8,96.9c-1.9-2-2.8-4.8-2.8-8.4s1-6.4,2.9-8.6
						s4.5-3.3,7.7-3.3c2.5,0,4.6,0.7,6.2,2.1c1.6,1.4,2.7,3.4,3.3,6l-2.7,0.6c-0.4-2-1.2-3.6-2.4-4.6c-1.2-1.1-2.7-1.6-4.5-1.6
						c-2.4,0-4.3,0.8-5.7,2.5c-1.4,1.6-2,3.9-2,6.9c0,2.8,0.7,5,2.1,6.5c1.4,1.6,3.2,2.4,5.6,2.4c1.9,0,3.4-0.5,4.5-1.4
						c1.2-1,2-2.4,2.6-4.5l2.6,0.7c-0.7,2.5-1.8,4.4-3.5,5.7c-1.7,1.3-3.8,2-6.3,2C131.2,100,128.6,99,126.8,96.9"/>
				</defs>
				<clipPath id="SVGID_00000028292062509926199700000005696402576335393680_">
					<use xlink:href="#SVGID_00000093895229020030845870000000926902766693301648_"  style="overflow:visible;"/>
				</clipPath>
				<g style="clip-path:url(#SVGID_00000028292062509926199700000005696402576335393680_);">
					<g>
						<defs>
							<rect id="SVGID_00000120555527938427647260000009188241015317289093_" x="-962" y="-41.5" width="1280" height="720"/>
						</defs>
						<clipPath id="SVGID_00000077282314520111599400000005263849304786756543_">
							<use xlink:href="#SVGID_00000120555527938427647260000009188241015317289093_"  style="overflow:visible;"/>
						</clipPath>
						
							<rect x="123" y="75.7" style="clip-path:url(#SVGID_00000077282314520111599400000005263849304786756543_);fill:#FFFFFE;" width="22.2" height="25.3"/>
					</g>
				</g>
			</g>
		</g>
		<g>
			<g>
				<defs>
					<path id="SVGID_00000163070558363862051680000007776254148373004207_" d="M148.4,97.7c-1.4-1.6-2.1-3.6-2.1-6.3
						c0-2.5,0.7-4.6,2.2-6.2c1.4-1.6,3.3-2.4,5.6-2.4c1.4,0,2.6,0.3,3.6,0.9s1.9,1.5,2.4,2.7c0.4,0.7,0.6,1.6,0.8,2.5s0.3,1.9,0.3,3
						H149c0.1,1.8,0.6,3.2,1.5,4.3c0.9,1.1,2.2,1.6,3.7,1.6c1.2,0,2.2-0.3,3-0.9s1.4-1.5,1.9-2.7l2.2,0.8c-0.6,1.6-1.6,2.9-2.8,3.8
						s-2.7,1.3-4.4,1.3C151.8,100,149.8,99.2,148.4,97.7z M156.3,85.6c-0.7-0.4-1.5-0.7-2.4-0.7c-1.4,0-2.5,0.5-3.4,1.4
						s-1.4,2.1-1.5,3.7h9.4c0-0.5-0.1-1-0.2-1.4c-0.1-0.4-0.2-0.8-0.4-1.1C157.5,86.6,157,86,156.3,85.6z"/>
				</defs>
				<clipPath id="SVGID_00000067202417572402929340000001845647807870704052_">
					<use xlink:href="#SVGID_00000163070558363862051680000007776254148373004207_"  style="overflow:visible;"/>
				</clipPath>
				<g style="clip-path:url(#SVGID_00000067202417572402929340000001845647807870704052_);">
					<g>
						<defs>
							<rect id="SVGID_00000134929175620585978930000001159976613175910541_" x="-962" y="-41.5" width="1280" height="720"/>
						</defs>
						<clipPath id="SVGID_00000006686415584623207620000001279002622996681891_">
							<use xlink:href="#SVGID_00000134929175620585978930000001159976613175910541_"  style="overflow:visible;"/>
						</clipPath>
						
							<rect x="145.3" y="81.7" style="clip-path:url(#SVGID_00000006686415584623207620000001279002622996681891_);fill:#FFFFFE;" width="17.1" height="19.3"/>
					</g>
				</g>
			</g>
		</g>
		<g>
			<g>
				<defs>
					<path id="SVGID_00000139275595119273693040000009827165519248566431_" d="M164.2,83.1h2.6v3.8h0.1c0.6-1.3,1.4-2.3,2.4-3.1
						c1-0.7,2.2-1.1,3.5-1.1c1.8,0,3.2,0.6,4.2,1.7s1.5,2.8,1.5,5v10.2h-2.6v-9.5c0-1.8-0.3-3.1-0.9-3.9c-0.6-0.8-1.6-1.2-3-1.2
						c-1.5,0-2.7,0.6-3.6,1.7c-0.9,1.2-1.3,2.8-1.3,4.8v8.1h-2.7V83.1"/>
				</defs>
				<clipPath id="SVGID_00000085967762008074011020000000490630370094157741_">
					<use xlink:href="#SVGID_00000139275595119273693040000009827165519248566431_"  style="overflow:visible;"/>
				</clipPath>
				<g style="clip-path:url(#SVGID_00000085967762008074011020000000490630370094157741_);">
					<g>
						<defs>
							<rect id="SVGID_00000173123677521839115740000006072746651013153212_" x="-962" y="-41.5" width="1280" height="720"/>
						</defs>
						<clipPath id="SVGID_00000053529931433712101740000013895329334629105541_">
							<use xlink:href="#SVGID_00000173123677521839115740000006072746651013153212_"  style="overflow:visible;"/>
						</clipPath>
						
							<rect x="163.2" y="81.7" style="clip-path:url(#SVGID_00000053529931433712101740000013895329334629105541_);fill:#FFFFFE;" width="16.3" height="18.9"/>
					</g>
				</g>
			</g>
		</g>
		<g>
			<g>
				<defs>
					<path id="SVGID_00000062913483047466227690000016348977724778096540_" d="M190.3,97.6c0.4,0,0.7-0.1,1-0.2v2.1
						c-0.5,0.2-0.9,0.3-1.4,0.3c-0.4,0.1-0.9,0.1-1.5,0.1c-1.6,0-2.8-0.4-3.6-1.2c-0.8-0.8-1.2-2.1-1.2-3.8v-9.8h-3.4V83h3.5v-3.5
						l2.6-1.3V83h5.1v2.1h-5.1v9.5c0,1.1,0.2,1.9,0.6,2.4c0.4,0.5,1.1,0.7,2.2,0.7C189.5,97.7,189.9,97.7,190.3,97.6"/>
				</defs>
				<clipPath id="SVGID_00000165218479679787285320000006203977222073722508_">
					<use xlink:href="#SVGID_00000062913483047466227690000016348977724778096540_"  style="overflow:visible;"/>
				</clipPath>
				<g style="clip-path:url(#SVGID_00000165218479679787285320000006203977222073722508_);">
					<g>
						<defs>
							<rect id="SVGID_00000085252680727329133080000006143427810653375132_" x="-962" y="-41.5" width="1280" height="720"/>
						</defs>
						<clipPath id="SVGID_00000001662582051598704690000012589289693990733233_">
							<use xlink:href="#SVGID_00000085252680727329133080000006143427810653375132_"  style="overflow:visible;"/>
						</clipPath>
						
							<rect x="179.2" y="77.3" style="clip-path:url(#SVGID_00000001662582051598704690000012589289693990733233_);fill:#FFFFFE;" width="13.1" height="23.7"/>
					</g>
				</g>
			</g>
		</g>
		<g>
			<g>
				<defs>
					<path id="SVGID_00000144328534115784938100000005504475403933910401_" d="M194.6,97.7c-1.4-1.6-2.1-3.6-2.1-6.3
						c0-2.5,0.7-4.6,2.2-6.2c1.4-1.6,3.3-2.4,5.6-2.4c1.4,0,2.6,0.3,3.6,0.9s1.9,1.5,2.4,2.7c0.4,0.7,0.6,1.6,0.8,2.5s0.3,1.9,0.3,3
						h-12.2c0.1,1.8,0.6,3.2,1.5,4.3c0.9,1.1,2.2,1.6,3.7,1.6c1.2,0,2.2-0.3,3-0.9s1.4-1.5,1.9-2.7l2.2,0.8
						c-0.6,1.6-1.6,2.9-2.8,3.8s-2.7,1.3-4.4,1.3C198,100,196.1,99.2,194.6,97.7z M202.5,85.6c-0.7-0.4-1.5-0.7-2.4-0.7
						c-1.4,0-2.5,0.5-3.4,1.4s-1.4,2.1-1.5,3.7h9.4c0-0.5-0.1-1-0.2-1.4c-0.1-0.4-0.2-0.8-0.4-1.1C203.7,86.6,203.2,86,202.5,85.6z"
						/>
				</defs>
				<clipPath id="SVGID_00000021084942112012779780000016960711082225441932_">
					<use xlink:href="#SVGID_00000144328534115784938100000005504475403933910401_"  style="overflow:visible;"/>
				</clipPath>
				<g style="clip-path:url(#SVGID_00000021084942112012779780000016960711082225441932_);">
					<g>
						<defs>
							<rect id="SVGID_00000180325097607397729040000005559895880706979496_" x="-962" y="-41.5" width="1280" height="720"/>
						</defs>
						<clipPath id="SVGID_00000135654098815466623870000003605304424860915886_">
							<use xlink:href="#SVGID_00000180325097607397729040000005559895880706979496_"  style="overflow:visible;"/>
						</clipPath>
						
							<rect x="191.5" y="81.7" style="clip-path:url(#SVGID_00000135654098815466623870000003605304424860915886_);fill:#FFFFFE;" width="17.1" height="19.3"/>
					</g>
				</g>
			</g>
		</g>
		<g>
			<g>
				<defs>
					<rect id="SVGID_00000180325170053633413440000010333769708988424362_" y="0.5" width="221.7" height="112"/>
				</defs>
				<clipPath id="SVGID_00000080893879422887092400000011723920708291902614_">
					<use xlink:href="#SVGID_00000180325170053633413440000010333769708988424362_"  style="overflow:visible;"/>
				</clipPath>
				<g style="clip-path:url(#SVGID_00000080893879422887092400000011723920708291902614_);enable-background:new    ;">
					<g>
						<g>
							<defs>
								<rect id="SVGID_00000060739806026878171070000005346742694226165675_" y="0.5" width="222" height="113"/>
							</defs>
							<clipPath id="SVGID_00000021105714780857216800000005470362410691420825_">
								<use xlink:href="#SVGID_00000060739806026878171070000005346742694226165675_"  style="overflow:visible;"/>
							</clipPath>
							<g style="clip-path:url(#SVGID_00000021105714780857216800000005470362410691420825_);">
								<g>
									<defs>
										<path id="SVGID_00000011737086448377281110000002751653038381906868_" d="M220.7,84c0.7,0.8,1,2,1,3.5
											c0,0.4,0,0.8-0.1,1.2s-0.1,0.8-0.2,1.1l-2.5,0.3c0.1-0.3,0.1-0.8,0.2-1.2c0-0.5,0.1-0.8,0.1-1.1c0-1-0.2-1.8-0.6-2.3
											c-0.4-0.5-1-0.8-1.8-0.8c-1.1,0-2.1,0.6-2.7,1.8c-0.7,1.2-1,2.8-1,4.8v8.2h-2.7V83.1h2.6v3.6h0.1c0.4-1.2,1.1-2.2,1.9-2.9
											c0.8-0.7,1.7-1,2.8-1C219.1,82.8,220,83.2,220.7,84"/>
									</defs>
									<clipPath id="SVGID_00000036223566718722488330000013322378859435856782_">
										<use xlink:href="#SVGID_00000011737086448377281110000002751653038381906868_"  style="overflow:visible;"/>
									</clipPath>
									<g style="clip-path:url(#SVGID_00000036223566718722488330000013322378859435856782_);">
										<g>
											<defs>
												<rect id="SVGID_00000063609715019702832550000000812969228015104912_" y="0.5" width="222" height="112"/>
											</defs>
											<clipPath id="SVGID_00000057865980599973272040000014588787079333821611_">
												<use xlink:href="#SVGID_00000063609715019702832550000000812969228015104912_"  style="overflow:visible;"/>
											</clipPath>
											
												<rect x="209.4" y="81.8" style="clip-path:url(#SVGID_00000057865980599973272040000014588787079333821611_);fill:#FFFFFE;" width="13.3" height="18.8"/>
										</g>
									</g>
								</g>
							</g>
						</g>
						<g>
							<defs>
								<rect id="SVGID_00000161590780498546312170000004814412535223422857_" y="0.5" width="222" height="113"/>
							</defs>
							<clipPath id="SVGID_00000006669716267466959970000013858201351851320511_">
								<use xlink:href="#SVGID_00000161590780498546312170000004814412535223422857_"  style="overflow:visible;"/>
							</clipPath>
							<g style="clip-path:url(#SVGID_00000006669716267466959970000013858201351851320511_);">
								<g>
									<defs>
										<path id="SVGID_00000146460069457250320790000007294350561405762711_" d="M111.5,62.4l-8.3-25.7L89,34.6l3.5-7.1L79,0.5
											H52l-6.4,12.9L40,7.9l-29.9,4.5L1.7,38L12,48.1l-7,3.6L0,81.6l21.9,15.9l12.8-6.6l1.3,7.8l26.8,13.9l21.9-15.9l-2.4-14.2
											l7.8,1.2L111.5,62.4z M77.3,3.2l11.5,23H66.3l-11.5-23C54.8,3.2,77.3,3.2,77.3,3.2z M52.7,5L64,27.5L52.7,50L41.5,27.5
											L52.7,5z M12.1,14.7l25.4-3.8l-6.9,21.4L5.2,36.1L12.1,14.7z M6.3,38.7L31.1,35L49,52.6l-24.9,3.7L6.3,38.7z M21.1,93.6
											L2.9,80.4L7.1,55l18.2,13.2L21.1,93.6z M23.9,93.4L28,68.5L50.3,57l-4.1,24.8L23.9,93.4z M62.5,109.4L39.7,97.6l18.2-13.2
											l22.8,11.8L62.5,109.4z M59,81.9L54.9,57l22.3,11.6l4.1,24.8L59,81.9z M81.2,56.5l-24.9-3.7l17.9-17.6l24.9,3.7L81.2,56.5
											z M101.5,40.3l6.9,21.4l-18.3,18l-6.9-21.4L101.5,40.3z"/>
									</defs>
									<clipPath id="SVGID_00000045617715673214556440000003550449576323377316_">
										<use xlink:href="#SVGID_00000146460069457250320790000007294350561405762711_"  style="overflow:visible;"/>
									</clipPath>
									<g style="clip-path:url(#SVGID_00000045617715673214556440000003550449576323377316_);">
										<g>
											<defs>
												<rect id="SVGID_00000119116441796201147760000018147073534141244317_" y="0.5" width="222" height="112"/>
											</defs>
											<clipPath id="SVGID_00000057122607570951509990000009221559676506934184_">
												<use xlink:href="#SVGID_00000119116441796201147760000018147073534141244317_"  style="overflow:visible;"/>
											</clipPath>
											
												<rect x="-1" y="-0.5" style="clip-path:url(#SVGID_00000057122607570951509990000009221559676506934184_);fill:#FFFFFE;" width="113.5" height="114"/>
										</g>
									</g>
								</g>
							</g>
						</g>
					</g>
				</g>
			</g>
		</g>
	</g>
</g>
</svg>
