<?xml version="1.0" encoding="utf-8"?>
<!-- Generator: Adobe Illustrator 26.5.0, SVG Export Plug-In . SVG Version: 6.00 Build 0)  -->
<svg version="1.1" id="Ebene_1" xmlns="http://www.w3.org/2000/svg" xmlns:xlink="http://www.w3.org/1999/xlink" x="0px" y="0px"
	 viewBox="0 0 424 60" style="enable-background:new 0 0 424 60;" xml:space="preserve">
<style type="text/css">
	.st0{fill-rule:evenodd;clip-rule:evenodd;fill:#FFFFFF;}
	.st1{filter:url(#Adobe_OpacityMaskFilter);}
	.st2{mask:url(#mask-2_00000062879393186716236070000004936514244163830928_);fill-rule:evenodd;clip-rule:evenodd;fill:#FFFFFF;}
	.st3{filter:url(#Adobe_OpacityMaskFilter_00000016780232841598725630000008100763345523078274_);}
	.st4{mask:url(#mask-2_00000164491544337506941310000006209422811091146657_);fill-rule:evenodd;clip-rule:evenodd;fill:#FFFFFF;}
	.st5{filter:url(#Adobe_OpacityMaskFilter_00000094596044825793564280000011245625478209857214_);}
	.st6{mask:url(#mask-2_00000032632135660722315990000005351340347346983832_);fill-rule:evenodd;clip-rule:evenodd;fill:#FFFFFF;}
	.st7{filter:url(#Adobe_OpacityMaskFilter_00000041994597793231568480000013782994906376528008_);}
	.st8{mask:url(#mask-2_00000048474555616665666550000016788915214987922838_);fill-rule:evenodd;clip-rule:evenodd;fill:#FFFFFF;}
	.st9{filter:url(#Adobe_OpacityMaskFilter_00000089535920390205795900000010959679319471628722_);}
	.st10{mask:url(#mask-2_00000053537963843415249150000007194126164909384874_);fill-rule:evenodd;clip-rule:evenodd;fill:#FFFFFF;}
	.st11{filter:url(#Adobe_OpacityMaskFilter_00000108285774352997371090000005753137850212610746_);}
	.st12{mask:url(#mask-2_00000170279749805365045300000004679250908076649402_);fill-rule:evenodd;clip-rule:evenodd;fill:#FFFFFF;}
	.st13{filter:url(#Adobe_OpacityMaskFilter_00000090270142954025512880000008823968607765933479_);}
	.st14{mask:url(#mask-2_00000107551679635235924280000008516566345428343451_);fill-rule:evenodd;clip-rule:evenodd;fill:#FFFFFF;}
	.st15{filter:url(#Adobe_OpacityMaskFilter_00000152240522630978552410000009022551060919527102_);}
	.st16{mask:url(#mask-2_00000068662844653377864150000010141605993730050457_);fill-rule:evenodd;clip-rule:evenodd;fill:#FFFFFF;}
	.st17{filter:url(#Adobe_OpacityMaskFilter_00000010299004998626989350000014524053761513247650_);}
	.st18{mask:url(#mask-2_00000091008740979714524690000007421334741398912171_);fill-rule:evenodd;clip-rule:evenodd;fill:#FFFFFF;}
	.st19{filter:url(#Adobe_OpacityMaskFilter_00000032642294312466811310000002731409110014924431_);}
	.st20{mask:url(#mask-2_00000157270470416722120050000014034991056102936724_);fill-rule:evenodd;clip-rule:evenodd;fill:#FFFFFF;}
	.st21{filter:url(#Adobe_OpacityMaskFilter_00000144315147988713929720000004160181181337568153_);}
	.st22{mask:url(#mask-2_00000053509196997479228130000006191257994282154152_);fill-rule:evenodd;clip-rule:evenodd;fill:#FFFFFF;}
	.st23{filter:url(#Adobe_OpacityMaskFilter_00000096031230812691382920000003116474130049511593_);}
	.st24{mask:url(#mask-2_00000008867953525344301110000002680973643247874717_);fill-rule:evenodd;clip-rule:evenodd;fill:#FFFFFF;}
	.st25{filter:url(#Adobe_OpacityMaskFilter_00000002367407497396969800000004429445226249790638_);}
	.st26{mask:url(#mask-2_00000106836373074375843210000005754690180331366057_);fill-rule:evenodd;clip-rule:evenodd;fill:#FFFFFF;}
	.st27{filter:url(#Adobe_OpacityMaskFilter_00000137818355615154104900000014972731164485682619_);}
	.st28{mask:url(#mask-2_00000132808162801455725240000010518294282997000066_);fill-rule:evenodd;clip-rule:evenodd;fill:#FFFFFF;}
	.st29{filter:url(#Adobe_OpacityMaskFilter_00000119836281772910868000000002700970045509682361_);}
	.st30{mask:url(#mask-2_00000004521078918041386910000007598685917037124739_);fill-rule:evenodd;clip-rule:evenodd;fill:#FFFFFF;}
	.st31{filter:url(#Adobe_OpacityMaskFilter_00000155852636770565757570000017930806873144270743_);}
	.st32{mask:url(#mask-2_00000152259975332185125570000012805044408346500491_);fill-rule:evenodd;clip-rule:evenodd;fill:#FFFFFF;}
	.st33{filter:url(#Adobe_OpacityMaskFilter_00000092441069382952343960000007680118208475148423_);}
	.st34{mask:url(#mask-2_00000018231472643289706480000013638195588821395087_);fill-rule:evenodd;clip-rule:evenodd;fill:#FFFFFF;}
</style>
<g id="Brand_x2F_EBC-Logo_x2F_default_x2F_-1-line">
	<g id="Group-35">
		<path id="Fill-2" class="st0" d="M86.6,38.6c-0.9-0.9-1.3-2.3-1.3-4.1v-9.4h2.4v8.6c0,1.5,0.3,2.6,0.9,3.2c0.6,0.7,1.5,1,2.7,1
			c1.3,0,2.4-0.5,3.1-1.5c0.7-1,1.1-2.4,1.1-4.2v-7.3h2.4v14.6h-2.3v-3.3h-0.1c-0.5,1.2-1.2,2.1-2,2.7c-0.9,0.6-1.9,0.9-3,0.9
			C88.7,40,87.5,39.5,86.6,38.6"/>
		<path id="Fill-4" class="st0" d="M110.4,26c0.6,0.7,0.9,1.8,0.9,3.1c0,0.3,0,0.7-0.1,1.1c0,0.4-0.1,0.7-0.2,1l-2.2,0.3
			c0.1-0.3,0.1-0.7,0.2-1.1c0-0.4,0.1-0.7,0.1-1c0-0.9-0.2-1.6-0.5-2.1c-0.4-0.5-0.9-0.7-1.6-0.7c-1,0-1.8,0.5-2.4,1.6
			c-0.6,1.1-0.9,2.5-0.9,4.3v7.3h-2.4V25.1h2.3v3.2h0.1c0.4-1.1,0.9-1.9,1.7-2.5c0.7-0.6,1.5-0.9,2.5-0.9
			C108.9,24.9,109.8,25.3,110.4,26"/>
		<path id="Fill-6" class="st0" d="M122.9,36.6c0.8-1,1.1-2.3,1.1-4.2c0-1.8-0.4-3.1-1.2-4.1c-0.8-1-1.8-1.5-3.2-1.5
			c-1.4,0-2.5,0.5-3.3,1.4c-0.8,1-1.2,2.3-1.2,4.1c0,1.8,0.4,3.2,1.2,4.2c0.8,1,1.9,1.5,3.3,1.5C121.1,38,122.2,37.5,122.9,36.6
			 M114.7,38c-1.2-1.3-1.8-3.2-1.8-5.6c0-2.3,0.6-4.2,1.9-5.5c1.2-1.4,2.9-2.1,5-2.1c2.1,0,3.7,0.7,4.9,2c1.2,1.4,1.8,3.2,1.8,5.5
			c0,2.4-0.6,4.3-1.8,5.6c-1.2,1.4-2.9,2-5,2C117.5,40,115.9,39.3,114.7,38"/>
		<path id="Fill-8" class="st0" d="M139,28.3c-0.8-1-1.8-1.5-3.1-1.5c-1.4,0-2.5,0.5-3.3,1.5c-0.8,1-1.2,2.4-1.2,4.1
			c0,1.7,0.4,3.1,1.2,4.1c0.8,1,1.9,1.5,3.3,1.5c1.3,0,2.3-0.5,3.1-1.5c0.7-1,1.1-2.4,1.1-4.1C140.1,30.7,139.7,29.3,139,28.3
			L139,28.3z M129.1,44.4V25.1h2.3v3.3h0.1c0.5-1.2,1.2-2.1,2-2.7c0.9-0.6,1.9-0.9,3.1-0.9c1.8,0,3.2,0.7,4.3,2.1
			c1.1,1.4,1.6,3.2,1.6,5.5c0,2.3-0.6,4.1-1.7,5.5c-1.1,1.4-2.5,2.1-4.3,2.1c-1.2,0-2.2-0.3-3-0.9c-0.8-0.6-1.5-1.4-2-2.5h-0.1v7.7
			H129.1z"/>
		<path id="Fill-10" class="st0" d="M153.3,27.3c-0.6-0.4-1.3-0.6-2.1-0.6c-1.2,0-2.2,0.4-3,1.2c-0.8,0.8-1.2,1.9-1.4,3.3h8.3
			c0-0.5-0.1-0.9-0.1-1.2c-0.1-0.4-0.2-0.7-0.3-1C154.3,28.3,153.9,27.7,153.3,27.3 M146.3,38c-1.3-1.4-1.9-3.2-1.9-5.5
			c0-2.2,0.6-4.1,1.9-5.5c1.3-1.4,2.9-2.1,4.9-2.1c1.2,0,2.3,0.3,3.2,0.8c0.9,0.6,1.6,1.3,2.2,2.4c0.3,0.6,0.6,1.4,0.7,2.2
			c0.2,0.8,0.2,1.7,0.2,2.7h-10.7c0.1,1.6,0.5,2.8,1.3,3.8c0.8,0.9,1.9,1.4,3.3,1.4c1.1,0,2-0.3,2.7-0.8c0.7-0.5,1.3-1.3,1.7-2.4
			l2,0.7c-0.5,1.4-1.4,2.5-2.5,3.3c-1.1,0.8-2.4,1.2-3.9,1.2C149.3,40,147.6,39.3,146.3,38"/>
		<path id="Fill-12" class="st0" d="M162.7,37.6c0.5,0.4,1.2,0.7,2,0.7c1.4,0,2.4-0.5,3.2-1.5c0.8-1,1.2-2.3,1.2-3.9v-1.1
			c-0.2,0.2-0.5,0.3-0.8,0.4c-0.4,0.1-0.9,0.3-1.5,0.4l-1.9,0.4c-1.1,0.2-1.8,0.5-2.3,0.9c-0.5,0.4-0.7,1-0.7,1.8
			C162,36.5,162.2,37.1,162.7,37.6 M169.9,39.1c-0.5-0.5-0.8-1.3-0.8-2.4v-0.1H169c-0.4,1.1-1.1,1.9-2,2.5c-0.9,0.6-1.9,0.9-3.1,0.9
			c-1.4,0-2.4-0.4-3.2-1.1c-0.8-0.7-1.2-1.7-1.2-2.9c0-0.7,0.1-1.3,0.3-1.8s0.6-1,1-1.4c0.4-0.3,0.9-0.6,1.5-0.8
			c0.6-0.2,1.3-0.4,2.1-0.5l2.1-0.3c0.9-0.2,1.6-0.4,2-0.7c0.4-0.3,0.6-0.7,0.6-1.3c0-0.8-0.3-1.3-0.8-1.8s-1.3-0.7-2.2-0.7
			c-1,0-1.9,0.3-2.5,0.8c-0.6,0.5-1.1,1.4-1.4,2.5l-2.2-0.5c0.4-1.5,1.2-2.7,2.2-3.5c1.1-0.8,2.3-1.2,3.9-1.2c1.7,0,3,0.5,3.9,1.4
			c0.9,0.9,1.4,2.2,1.4,3.9v6c0,0.7,0.1,1.2,0.4,1.5c0.2,0.3,0.7,0.4,1.3,0.4c0.1,0,0.2,0,0.3,0c0.1,0,0.2,0,0.4,0v1.7
			c-0.1,0.1-0.3,0.1-0.6,0.2c-0.3,0-0.5,0.1-0.8,0.1C171.3,39.9,170.5,39.6,169.9,39.1"/>
		<path id="Fill-14" class="st0" d="M175.7,25.1h2.3v3.4h0.1c0.5-1.2,1.2-2.1,2.1-2.7c0.9-0.6,1.9-1,3.1-1c1.6,0,2.9,0.5,3.7,1.5
			c0.9,1,1.3,2.5,1.3,4.4v8.9H186v-8.4c0-1.6-0.3-2.7-0.8-3.5c-0.6-0.7-1.4-1.1-2.7-1.1c-1.4,0-2.4,0.5-3.2,1.5
			c-0.8,1-1.2,2.4-1.2,4.2v7.1h-2.4V25.1z"/>
		<path id="Fill-16" class="st0" d="M208.6,31.3c-0.8-0.6-2.1-0.9-3.8-0.9h-5.1v7.2h5.4c1.6,0,2.8-0.3,3.6-0.9
			c0.8-0.6,1.1-1.5,1.1-2.8C209.9,32.8,209.4,31.9,208.6,31.3L208.6,31.3z M208,22.7c-0.7-0.5-1.8-0.8-3.3-0.8h-5v6.7h4.7
			c1.6,0,2.8-0.3,3.6-0.8c0.8-0.6,1.1-1.4,1.1-2.6C209.1,24.1,208.8,23.2,208,22.7L208,22.7z M197.3,39.7V19.8h7.3
			c2.3,0,4,0.4,5.2,1.2c1.2,0.8,1.7,2,1.7,3.7c0,1.1-0.4,2.1-1.1,2.9s-1.7,1.4-2.9,1.7v0c1.5,0.2,2.7,0.8,3.5,1.6
			c0.8,0.9,1.3,1.9,1.3,3.2c0,1.8-0.6,3.2-1.8,4.1c-1.2,0.9-2.9,1.4-5.2,1.4H197.3z"/>
		<g id="Clip-19">
		</g>
		<defs>
			<filter id="Adobe_OpacityMaskFilter" filterUnits="userSpaceOnUse" x="215.1" y="18.8" width="2.4" height="20.9">
				<feColorMatrix  type="matrix" values="1 0 0 0 0  0 1 0 0 0  0 0 1 0 0  0 0 0 1 0"/>
			</filter>
		</defs>
		
			<mask maskUnits="userSpaceOnUse" x="215.1" y="18.8" width="2.4" height="20.9" id="mask-2_00000062879393186716236070000004936514244163830928_">
			<g class="st1">
				<polygon id="path-1_00000126286846903254589180000014870704894035746712_" class="st0" points="0,60 424,60 424,0 0,0 				"/>
			</g>
		</mask>
		<polygon id="Fill-18" class="st2" points="215.1,39.7 217.5,39.7 217.5,18.8 215.1,18.8 		"/>
		<defs>
			
				<filter id="Adobe_OpacityMaskFilter_00000096775083874997887950000014174609842791293591_" filterUnits="userSpaceOnUse" x="220.2" y="24.8" width="13.6" height="15.2">
				<feColorMatrix  type="matrix" values="1 0 0 0 0  0 1 0 0 0  0 0 1 0 0  0 0 0 1 0"/>
			</filter>
		</defs>
		
			<mask maskUnits="userSpaceOnUse" x="220.2" y="24.8" width="13.6" height="15.2" id="mask-2_00000164491544337506941310000006209422811091146657_">
			<g style="filter:url(#Adobe_OpacityMaskFilter_00000096775083874997887950000014174609842791293591_);">
				<polygon id="path-1_00000013170424882558152160000005344030647889855627_" class="st0" points="0,60 424,60 424,0 0,0 				"/>
			</g>
		</mask>
		<path id="Fill-20" class="st4" d="M230.3,36.6c0.8-1,1.1-2.3,1.1-4.2c0-1.8-0.4-3.1-1.2-4.1c-0.8-1-1.8-1.5-3.2-1.5
			c-1.4,0-2.5,0.5-3.3,1.4c-0.8,1-1.2,2.3-1.2,4.1c0,1.8,0.4,3.2,1.2,4.2c0.8,1,1.9,1.5,3.3,1.5C228.4,38,229.5,37.5,230.3,36.6
			 M222,38c-1.2-1.3-1.8-3.2-1.8-5.6c0-2.3,0.6-4.2,1.9-5.5c1.2-1.4,2.9-2.1,5-2.1c2.1,0,3.7,0.7,4.9,2c1.2,1.4,1.8,3.2,1.8,5.5
			c0,2.4-0.6,4.3-1.8,5.6c-1.2,1.4-2.9,2-5,2C224.9,40,223.2,39.3,222,38"/>
		<defs>
			
				<filter id="Adobe_OpacityMaskFilter_00000057837813434342950920000002102356855180271504_" filterUnits="userSpaceOnUse" x="235.7" y="24.8" width="13.4" height="15.2">
				<feColorMatrix  type="matrix" values="1 0 0 0 0  0 1 0 0 0  0 0 1 0 0  0 0 0 1 0"/>
			</filter>
		</defs>
		
			<mask maskUnits="userSpaceOnUse" x="235.7" y="24.8" width="13.4" height="15.2" id="mask-2_00000032632135660722315990000005351340347346983832_">
			<g style="filter:url(#Adobe_OpacityMaskFilter_00000057837813434342950920000002102356855180271504_);">
				<polygon id="path-1_00000062872998129922707640000007041299040987568018_" class="st0" points="0,60 424,60 424,0 0,0 				"/>
			</g>
		</mask>
		<path id="Fill-21" class="st6" d="M239.3,28.3c-0.8,1-1.2,2.3-1.2,4c0,1.7,0.4,3.1,1.2,4.1c0.8,1,1.9,1.5,3.3,1.5
			c1.1,0,2-0.3,2.7-0.9c0.7-0.6,1.2-1.5,1.6-2.7l2.1,0.6c-0.4,1.5-1.2,2.7-2.3,3.6c-1.1,0.9-2.5,1.3-4.1,1.3c-2.2,0-3.8-0.7-5.1-2
			c-1.2-1.3-1.8-3.2-1.8-5.6c0-2.3,0.6-4.1,1.9-5.5c1.3-1.4,3-2.1,5-2.1c1.6,0,3,0.5,4.1,1.4c1.1,0.9,1.8,2.3,2.3,4l-2.3,0.5
			c-0.3-1.3-0.8-2.3-1.4-2.9c-0.7-0.7-1.6-1-2.7-1C241.2,26.8,240.1,27.3,239.3,28.3"/>
		<defs>
			
				<filter id="Adobe_OpacityMaskFilter_00000168801976400405917070000004450701445387678889_" filterUnits="userSpaceOnUse" x="251.5" y="18.8" width="12.7" height="20.9">
				<feColorMatrix  type="matrix" values="1 0 0 0 0  0 1 0 0 0  0 0 1 0 0  0 0 0 1 0"/>
			</filter>
		</defs>
		
			<mask maskUnits="userSpaceOnUse" x="251.5" y="18.8" width="12.7" height="20.9" id="mask-2_00000048474555616665666550000016788915214987922838_">
			<g style="filter:url(#Adobe_OpacityMaskFilter_00000168801976400405917070000004450701445387678889_);">
				<polygon id="path-1_00000117665311026218692130000004629118853439546278_" class="st0" points="0,60 424,60 424,0 0,0 				"/>
			</g>
		</mask>
		<polygon id="Fill-22" class="st8" points="261.6,39.7 256.7,31.6 253.9,34.5 253.9,39.7 251.5,39.7 251.5,18.8 253.9,18.8 
			253.9,32.1 260.7,25.1 263.5,25.1 258.5,30.3 264.2,39.7 		"/>
		<defs>
			
				<filter id="Adobe_OpacityMaskFilter_00000154394333892965025220000009119707198157516959_" filterUnits="userSpaceOnUse" x="264.4" y="24.8" width="13.4" height="15.2">
				<feColorMatrix  type="matrix" values="1 0 0 0 0  0 1 0 0 0  0 0 1 0 0  0 0 0 1 0"/>
			</filter>
		</defs>
		
			<mask maskUnits="userSpaceOnUse" x="264.4" y="24.8" width="13.4" height="15.2" id="mask-2_00000053537963843415249150000007194126164909384874_">
			<g style="filter:url(#Adobe_OpacityMaskFilter_00000154394333892965025220000009119707198157516959_);">
				<polygon id="path-1_00000044857407568473094590000004756848370020915623_" class="st0" points="0,60 424,60 424,0 0,0 				"/>
			</g>
		</mask>
		<path id="Fill-23" class="st10" d="M268,28.3c-0.8,1-1.2,2.3-1.2,4c0,1.7,0.4,3.1,1.2,4.1c0.8,1,1.9,1.5,3.3,1.5
			c1.1,0,2-0.3,2.7-0.9c0.7-0.6,1.2-1.5,1.6-2.7l2.1,0.6c-0.4,1.5-1.2,2.7-2.3,3.6c-1.1,0.9-2.5,1.3-4.1,1.3c-2.2,0-3.8-0.7-5.1-2
			c-1.2-1.3-1.8-3.2-1.8-5.6c0-2.3,0.6-4.1,1.9-5.5c1.3-1.4,3-2.1,5-2.1c1.6,0,3,0.5,4.1,1.4s1.8,2.3,2.3,4l-2.3,0.5
			c-0.3-1.3-0.8-2.3-1.4-2.9c-0.7-0.7-1.6-1-2.7-1C269.9,26.8,268.8,27.3,268,28.3"/>
		<defs>
			
				<filter id="Adobe_OpacityMaskFilter_00000135652700352492837650000002238328379847778994_" filterUnits="userSpaceOnUse" x="280.2" y="18.8" width="12.6" height="20.9">
				<feColorMatrix  type="matrix" values="1 0 0 0 0  0 1 0 0 0  0 0 1 0 0  0 0 0 1 0"/>
			</filter>
		</defs>
		
			<mask maskUnits="userSpaceOnUse" x="280.2" y="18.8" width="12.6" height="20.9" id="mask-2_00000170279749805365045300000004679250908076649402_">
			<g style="filter:url(#Adobe_OpacityMaskFilter_00000135652700352492837650000002238328379847778994_);">
				<polygon id="path-1_00000054250487266295692310000016547584735317858990_" class="st0" points="0,60 424,60 424,0 0,0 				"/>
			</g>
		</mask>
		<path id="Fill-24" class="st12" d="M280.2,18.8h2.4v9.6h0.1c0.5-1.1,1.2-2,2.1-2.6c0.9-0.6,1.9-0.9,3-0.9c1.6,0,2.9,0.5,3.7,1.5
			c0.9,1,1.3,2.5,1.3,4.4v8.9h-2.3v-8.4c0-1.6-0.3-2.7-0.8-3.5c-0.6-0.7-1.4-1.1-2.7-1.1c-1.4,0-2.4,0.5-3.2,1.5
			c-0.8,1-1.2,2.4-1.2,4.2v7.1h-2.4V18.8z"/>
		<defs>
			
				<filter id="Adobe_OpacityMaskFilter_00000152983366442354618930000014393631527460070824_" filterUnits="userSpaceOnUse" x="295.4" y="24.8" width="14.2" height="15.2">
				<feColorMatrix  type="matrix" values="1 0 0 0 0  0 1 0 0 0  0 0 1 0 0  0 0 0 1 0"/>
			</filter>
		</defs>
		
			<mask maskUnits="userSpaceOnUse" x="295.4" y="24.8" width="14.2" height="15.2" id="mask-2_00000107551679635235924280000008516566345428343451_">
			<g style="filter:url(#Adobe_OpacityMaskFilter_00000152983366442354618930000014393631527460070824_);">
				<polygon id="path-1_00000130632213389330677290000008989153855189878153_" class="st0" points="0,60 424,60 424,0 0,0 				"/>
			</g>
		</mask>
		<path id="Fill-25" class="st14" d="M298.5,37.6c0.5,0.4,1.2,0.7,2,0.7c1.4,0,2.4-0.5,3.2-1.5c0.8-1,1.2-2.3,1.2-3.9v-1.1
			c-0.2,0.2-0.5,0.3-0.8,0.4c-0.4,0.1-0.9,0.3-1.5,0.4l-1.9,0.4c-1.1,0.2-1.8,0.5-2.3,0.9c-0.5,0.4-0.7,1-0.7,1.8
			C297.8,36.5,298,37.1,298.5,37.6 M305.7,39.1c-0.5-0.5-0.8-1.3-0.8-2.4v-0.1h-0.1c-0.4,1.1-1.1,1.9-2,2.5
			c-0.9,0.6-1.9,0.9-3.1,0.9c-1.4,0-2.4-0.4-3.2-1.1c-0.8-0.7-1.2-1.7-1.2-2.9c0-0.7,0.1-1.3,0.3-1.8c0.2-0.5,0.6-1,1-1.4
			c0.4-0.3,0.9-0.6,1.5-0.8c0.6-0.2,1.3-0.4,2.1-0.5l2.1-0.3c0.9-0.2,1.6-0.4,2-0.7c0.4-0.3,0.6-0.7,0.6-1.3c0-0.8-0.3-1.3-0.8-1.8
			c-0.5-0.4-1.3-0.7-2.2-0.7c-1,0-1.9,0.3-2.5,0.8c-0.6,0.5-1.1,1.4-1.4,2.5l-2.2-0.5c0.4-1.5,1.2-2.7,2.2-3.5
			c1.1-0.8,2.3-1.2,3.9-1.2c1.7,0,3,0.5,3.9,1.4c0.9,0.9,1.4,2.2,1.4,3.9v6c0,0.7,0.1,1.2,0.4,1.5c0.2,0.3,0.7,0.4,1.3,0.4
			c0.1,0,0.2,0,0.3,0c0.1,0,0.2,0,0.4,0v1.7c-0.1,0.1-0.3,0.1-0.6,0.2c-0.3,0-0.5,0.1-0.8,0.1C307.1,39.9,306.3,39.6,305.7,39.1"/>
		<defs>
			
				<filter id="Adobe_OpacityMaskFilter_00000154398980939092109550000014736342474087344282_" filterUnits="userSpaceOnUse" x="311.4" y="18.8" width="2.6" height="20.9">
				<feColorMatrix  type="matrix" values="1 0 0 0 0  0 1 0 0 0  0 0 1 0 0  0 0 0 1 0"/>
			</filter>
		</defs>
		
			<mask maskUnits="userSpaceOnUse" x="311.4" y="18.8" width="2.6" height="20.9" id="mask-2_00000068662844653377864150000010141605993730050457_">
			<g style="filter:url(#Adobe_OpacityMaskFilter_00000154398980939092109550000014736342474087344282_);">
				<polygon id="path-1_00000085240245806172082400000018278882740489920420_" class="st0" points="0,60 424,60 424,0 0,0 				"/>
			</g>
		</mask>
		<path id="Fill-26" class="st16" d="M311.5,39.7h2.3V25.1h-2.3V39.7z M311.4,21.5h2.6v-2.7h-2.6V21.5z"/>
		<defs>
			
				<filter id="Adobe_OpacityMaskFilter_00000003827363510821386530000006604496261530678182_" filterUnits="userSpaceOnUse" x="317.4" y="24.8" width="12.6" height="14.9">
				<feColorMatrix  type="matrix" values="1 0 0 0 0  0 1 0 0 0  0 0 1 0 0  0 0 0 1 0"/>
			</filter>
		</defs>
		
			<mask maskUnits="userSpaceOnUse" x="317.4" y="24.8" width="12.6" height="14.9" id="mask-2_00000091008740979714524690000007421334741398912171_">
			<g style="filter:url(#Adobe_OpacityMaskFilter_00000003827363510821386530000006604496261530678182_);">
				<polygon id="path-1_00000022528772950103826130000003576860636884328100_" class="st0" points="0,60 424,60 424,0 0,0 				"/>
			</g>
		</mask>
		<path id="Fill-27" class="st18" d="M317.4,25.1h2.3v3.4h0.1c0.5-1.2,1.2-2.1,2.1-2.7c0.9-0.6,1.9-1,3.1-1c1.6,0,2.9,0.5,3.7,1.5
			c0.9,1,1.3,2.5,1.3,4.4v8.9h-2.3v-8.4c0-1.6-0.3-2.7-0.8-3.5c-0.6-0.7-1.4-1.1-2.7-1.1c-1.4,0-2.4,0.5-3.2,1.5
			c-0.8,1-1.2,2.4-1.2,4.2v7.1h-2.4V25.1z"/>
		<defs>
			
				<filter id="Adobe_OpacityMaskFilter_00000155865303615232206030000008720487379549692306_" filterUnits="userSpaceOnUse" x="338" y="19.5" width="17.8" height="20.5">
				<feColorMatrix  type="matrix" values="1 0 0 0 0  0 1 0 0 0  0 0 1 0 0  0 0 0 1 0"/>
			</filter>
		</defs>
		
			<mask maskUnits="userSpaceOnUse" x="338" y="19.5" width="17.8" height="20.5" id="mask-2_00000157270470416722120050000014034991056102936724_">
			<g style="filter:url(#Adobe_OpacityMaskFilter_00000155865303615232206030000008720487379549692306_);">
				<polygon id="path-1_00000145060264902770204760000006554976901833532081_" class="st0" points="0,60 424,60 424,0 0,0 				"/>
			</g>
		</mask>
		<path id="Fill-28" class="st20" d="M340.5,37.3c-1.6-1.8-2.5-4.2-2.5-7.4c0-3.1,0.9-5.7,2.6-7.6s4-2.9,6.7-2.9
			c2.2,0,4,0.6,5.5,1.9c1.5,1.2,2.4,3,2.9,5.3l-2.4,0.5c-0.4-1.8-1.1-3.1-2.1-4.1c-1-0.9-2.3-1.4-3.9-1.4c-2.1,0-3.8,0.7-5,2.2
			c-1.2,1.4-1.8,3.5-1.8,6.1c0,2.4,0.6,4.4,1.8,5.8c1.2,1.4,2.9,2.1,4.9,2.1c1.6,0,3-0.4,4-1.3c1-0.8,1.8-2.1,2.3-3.9l2.3,0.6
			c-0.6,2.2-1.6,3.8-3.1,5c-1.5,1.2-3.3,1.7-5.5,1.7C344.4,40,342.1,39.1,340.5,37.3"/>
		<defs>
			
				<filter id="Adobe_OpacityMaskFilter_00000044158805789297591550000003847636679797993611_" filterUnits="userSpaceOnUse" x="357.6" y="24.8" width="13.3" height="15.2">
				<feColorMatrix  type="matrix" values="1 0 0 0 0  0 1 0 0 0  0 0 1 0 0  0 0 0 1 0"/>
			</filter>
		</defs>
		
			<mask maskUnits="userSpaceOnUse" x="357.6" y="24.8" width="13.3" height="15.2" id="mask-2_00000053509196997479228130000006191257994282154152_">
			<g style="filter:url(#Adobe_OpacityMaskFilter_00000044158805789297591550000003847636679797993611_);">
				<polygon id="path-1_00000085233334958021998560000004865079985021512378_" class="st0" points="0,60 424,60 424,0 0,0 				"/>
			</g>
		</mask>
		<path id="Fill-29" class="st22" d="M366.5,27.3c-0.6-0.4-1.3-0.6-2.1-0.6c-1.2,0-2.2,0.4-3,1.2c-0.8,0.8-1.2,1.9-1.4,3.3h8.3
			c0-0.5-0.1-0.9-0.1-1.2c-0.1-0.4-0.2-0.7-0.3-1C367.5,28.3,367.1,27.7,366.5,27.3 M359.5,38c-1.3-1.4-1.9-3.2-1.9-5.5
			c0-2.2,0.6-4.1,1.9-5.5c1.3-1.4,2.9-2.1,4.9-2.1c1.2,0,2.3,0.3,3.2,0.8c0.9,0.6,1.6,1.3,2.2,2.4c0.3,0.6,0.6,1.4,0.7,2.2
			c0.2,0.8,0.2,1.7,0.2,2.7H360c0.1,1.6,0.5,2.8,1.3,3.8c0.8,0.9,1.9,1.4,3.3,1.4c1.1,0,2-0.3,2.7-0.8c0.7-0.5,1.3-1.3,1.7-2.4
			l2,0.7c-0.5,1.4-1.4,2.5-2.5,3.3c-1.1,0.8-2.4,1.2-3.9,1.2C362.5,40,360.8,39.3,359.5,38"/>
		<defs>
			
				<filter id="Adobe_OpacityMaskFilter_00000139289874622072159440000000568953251424038836_" filterUnits="userSpaceOnUse" x="373.4" y="24.8" width="12.6" height="14.9">
				<feColorMatrix  type="matrix" values="1 0 0 0 0  0 1 0 0 0  0 0 1 0 0  0 0 0 1 0"/>
			</filter>
		</defs>
		
			<mask maskUnits="userSpaceOnUse" x="373.4" y="24.8" width="12.6" height="14.9" id="mask-2_00000008867953525344301110000002680973643247874717_">
			<g style="filter:url(#Adobe_OpacityMaskFilter_00000139289874622072159440000000568953251424038836_);">
				<polygon id="path-1_00000139260724931108772870000018082186564535931040_" class="st0" points="0,60 424,60 424,0 0,0 				"/>
			</g>
		</mask>
		<path id="Fill-30" class="st24" d="M373.4,25.1h2.3v3.4h0.1c0.5-1.2,1.2-2.1,2.1-2.7c0.9-0.6,1.9-1,3.1-1c1.6,0,2.9,0.5,3.7,1.5
			c0.9,1,1.3,2.5,1.3,4.4v8.9h-2.3v-8.4c0-1.6-0.3-2.7-0.8-3.5c-0.6-0.7-1.4-1.1-2.7-1.1c-1.4,0-2.4,0.5-3.2,1.5
			c-0.8,1-1.2,2.4-1.2,4.2v7.1h-2.4V25.1z"/>
		<defs>
			
				<filter id="Adobe_OpacityMaskFilter_00000168819019845517136400000015390201256288998035_" filterUnits="userSpaceOnUse" x="387.5" y="20.9" width="9.8" height="19.1">
				<feColorMatrix  type="matrix" values="1 0 0 0 0  0 1 0 0 0  0 0 1 0 0  0 0 0 1 0"/>
			</filter>
		</defs>
		
			<mask maskUnits="userSpaceOnUse" x="387.5" y="20.9" width="9.8" height="19.1" id="mask-2_00000106836373074375843210000005754690180331366057_">
			<g style="filter:url(#Adobe_OpacityMaskFilter_00000168819019845517136400000015390201256288998035_);">
				<polygon id="path-1_00000006691015231884263130000012513018334504206986_" class="st0" points="0,60 424,60 424,0 0,0 				"/>
			</g>
		</mask>
		<path id="Fill-31" class="st26" d="M396.4,37.9c0.3,0,0.6-0.1,0.9-0.2v1.8c-0.4,0.1-0.8,0.2-1.2,0.3c-0.4,0.1-0.8,0.1-1.3,0.1
			c-1.4,0-2.5-0.4-3.2-1.1c-0.7-0.7-1-1.8-1-3.3V27h-3v-1.8h3.1V22l2.3-1.2v4.2h4.5V27h-4.5v8.3c0,1,0.2,1.7,0.6,2.1
			c0.4,0.4,1,0.6,1.9,0.6C395.7,38,396.1,38,396.4,37.9"/>
		<defs>
			
				<filter id="Adobe_OpacityMaskFilter_00000145763283334645707940000012865994775705756800_" filterUnits="userSpaceOnUse" x="398.3" y="24.8" width="13.3" height="15.2">
				<feColorMatrix  type="matrix" values="1 0 0 0 0  0 1 0 0 0  0 0 1 0 0  0 0 0 1 0"/>
			</filter>
		</defs>
		
			<mask maskUnits="userSpaceOnUse" x="398.3" y="24.8" width="13.3" height="15.2" id="mask-2_00000132808162801455725240000010518294282997000066_">
			<g style="filter:url(#Adobe_OpacityMaskFilter_00000145763283334645707940000012865994775705756800_);">
				<polygon id="path-1_00000165950753292265059210000001857138130459848883_" class="st0" points="0,60 424,60 424,0 0,0 				"/>
			</g>
		</mask>
		<path id="Fill-32" class="st28" d="M407.1,27.3c-0.6-0.4-1.3-0.6-2.1-0.6c-1.2,0-2.2,0.4-3,1.2c-0.8,0.8-1.2,1.9-1.4,3.3h8.3
			c0-0.5-0.1-0.9-0.1-1.2c-0.1-0.4-0.2-0.7-0.3-1C408.2,28.3,407.7,27.7,407.1,27.3 M400.1,38c-1.3-1.4-1.9-3.2-1.9-5.5
			c0-2.2,0.6-4.1,1.9-5.5c1.3-1.4,2.9-2.1,4.9-2.1c1.2,0,2.3,0.3,3.2,0.8c0.9,0.6,1.6,1.3,2.2,2.4c0.3,0.6,0.6,1.4,0.7,2.2
			c0.2,0.8,0.2,1.7,0.2,2.7h-10.7c0.1,1.6,0.5,2.8,1.3,3.8c0.8,0.9,1.9,1.4,3.3,1.4c1.1,0,2-0.3,2.7-0.8c0.7-0.5,1.3-1.3,1.7-2.4
			l2,0.7c-0.5,1.4-1.4,2.5-2.5,3.3c-1.1,0.8-2.4,1.2-3.9,1.2C403.1,40,401.4,39.3,400.1,38"/>
		<defs>
			
				<filter id="Adobe_OpacityMaskFilter_00000134959265740384481920000018252633523835310742_" filterUnits="userSpaceOnUse" x="414" y="24.9" width="10" height="14.8">
				<feColorMatrix  type="matrix" values="1 0 0 0 0  0 1 0 0 0  0 0 1 0 0  0 0 0 1 0"/>
			</filter>
		</defs>
		
			<mask maskUnits="userSpaceOnUse" x="414" y="24.9" width="10" height="14.8" id="mask-2_00000004521078918041386910000007598685917037124739_">
			<g style="filter:url(#Adobe_OpacityMaskFilter_00000134959265740384481920000018252633523835310742_);">
				<polygon id="path-1_00000178166662891805317200000016081730546658679209_" class="st0" points="0,60 424,60 424,0 0,0 				"/>
			</g>
		</mask>
		<path id="Fill-33" class="st30" d="M423.1,26c0.6,0.7,0.9,1.8,0.9,3.1c0,0.3,0,0.7-0.1,1.1c0,0.4-0.1,0.7-0.2,1l-2.2,0.3
			c0.1-0.3,0.1-0.7,0.2-1.1c0-0.4,0.1-0.7,0.1-1c0-0.9-0.2-1.6-0.5-2.1c-0.4-0.5-0.9-0.7-1.6-0.7c-1,0-1.8,0.5-2.4,1.6
			c-0.6,1.1-0.9,2.5-0.9,4.3v7.3H414V25.1h2.3v3.2h0.1c0.4-1.1,0.9-1.9,1.7-2.5c0.7-0.6,1.5-0.9,2.5-0.9
			C421.6,24.9,422.5,25.3,423.1,26"/>
		<defs>
			
				<filter id="Adobe_OpacityMaskFilter_00000106116164944567815240000006728037760840845209_" filterUnits="userSpaceOnUse" x="0" y="0" width="59.8" height="60">
				<feColorMatrix  type="matrix" values="1 0 0 0 0  0 1 0 0 0  0 0 1 0 0  0 0 0 1 0"/>
			</filter>
		</defs>
		
			<mask maskUnits="userSpaceOnUse" x="0" y="0" width="59.8" height="60" id="mask-2_00000152259975332185125570000012805044408346500491_">
			<g style="filter:url(#Adobe_OpacityMaskFilter_00000106116164944567815240000006728037760840845209_);">
				<polygon id="path-1_00000098934189676352525440000015185287624778169991_" class="st0" points="0,60 424,60 424,0 0,0 				"/>
			</g>
		</mask>
		<path id="Fill-34" class="st32" d="M44.5,31.2l9.5-9.3l3.5,10.7L48,41.9L44.5,31.2z M43,29.9l-12.4-1.9l9.2-9.1l12.4,1.9L43,29.9z
			 M31.5,43.1l-2.1-12.4l11.5,6L43,49.1L31.5,43.1z M33.5,57.7l-11.8-6.1l9.1-6.6l11.8,6.1L33.5,57.7z M13.3,49l2.1-12.8l11.1-5.8
			l-2.1,12.8L13.3,49z M11.2,49.2l-9.1-6.6l2.2-13.1l9.1,6.6L11.2,49.2z M4.2,20.7L17,18.8l8.9,8.8l-12.8,1.9L4.2,20.7z M6.8,8.2
			l13.2-2l-3.5,10.7l-13.2,2L6.8,8.2z M28.3,3.3l5.8,11.6l-5.6,11.2l-5.8-11.6L28.3,3.3z M41,2l6,11.9H35.8L29.8,2H41z M59.8,33.1
			l-4.5-13.8l-7.5-1.1l1.8-3.6L42.3,0H27.7l-3.4,6.8L21.4,4L5.3,6.4L0.8,20.2l5.4,5.3l-3.6,1.9L0,43.5L11.8,52l6.8-3.5l0.7,4
			L33.6,60l11.8-8.6l-1.2-7.5l4,0.6L59.8,33.1z"/>
		<defs>
			
				<filter id="Adobe_OpacityMaskFilter_00000072239725008070909970000014001997110714882196_" filterUnits="userSpaceOnUse" x="69.7" y="19.8" width="13.4" height="19.8">
				<feColorMatrix  type="matrix" values="1 0 0 0 0  0 1 0 0 0  0 0 1 0 0  0 0 0 1 0"/>
			</filter>
		</defs>
		
			<mask maskUnits="userSpaceOnUse" x="69.7" y="19.8" width="13.4" height="19.8" id="mask-2_00000018231472643289706480000013638195588821395087_">
			<g style="filter:url(#Adobe_OpacityMaskFilter_00000072239725008070909970000014001997110714882196_);">
				<polygon id="path-1_00000014616398250992608570000000850844519956990621_" class="st0" points="0,60 424,60 424,0 0,0 				"/>
			</g>
		</mask>
		<polygon id="Fill-1" class="st34" points="69.7,19.8 82.6,19.8 82.6,21.9 72.1,21.9 72.1,28.4 82,28.4 82,30.4 72.1,30.4 
			72.1,37.6 83.1,37.6 83.1,39.7 69.7,39.7 		"/>
	</g>
</g>
</svg>
