<?xml version="1.0" encoding="utf-8"?>
<!-- Generator: Adobe Illustrator 26.5.0, SVG Export Plug-In . SVG Version: 6.00 Build 0)  -->
<svg version="1.1" id="Ebene_1" xmlns="http://www.w3.org/2000/svg" xmlns:xlink="http://www.w3.org/1999/xlink" x="0px" y="0px"
	 viewBox="0 0 442.5 131" style="enable-background:new 0 0 442.5 131;" xml:space="preserve">
<style type="text/css">
	.st0{fill:#FFFFFF;}
</style>
<path class="st0" d="M0,32.7v65.9L56.6,131l56.8-32.4V32.7L56.6,0L0,32.7z M74.1,43.8h10.5v43.4H73.9V66.3L62.2,86.9v0.2H51.5V66.3
	L39.7,87.1H28.9V66.3V43.8h10.7v23.7l12.2-23.7h10.5v23.2L74.1,43.8z"/>
<path class="st0" d="M203.7,44.6c-6.1,0-10.3,2.4-12.6,4.8c-2.8-3.2-6.9-4.9-11.2-4.8c-3.2,0-6.4,1.1-9,3v-2.4H159v39.4h11.9v-26
	c1.6-1.9,4-3.1,6.5-3.1c4.7,0,6.2,4.1,6.2,9.2v19.9h11.9v-22c0-1.2-0.1-2.5-0.2-3.7c1.6-2.1,4.1-3.4,6.8-3.4c4.7,0,6.2,4.1,6.2,9.2
	v19.9h11.9v-22C220.3,52.8,215.4,44.6,203.7,44.6z"/>
<path class="st0" d="M254.3,47.6c-2.5-2-5.5-3-8.7-3c-11.7,0-19.1,9.5-19.1,20.3s7.5,20.3,19.1,20.3c3.1,0,6.2-1,8.7-3v2.4h11.9
	V45.2h-11.9V47.6z M254.3,71.1c-1.5,2.2-4,3.4-6.7,3.3c-5.7,0-9.1-4.3-9.1-9.5s3.4-9.5,9.1-9.5c2.6-0.1,5.2,1.2,6.7,3.3V71.1z"/>
<path class="st0" d="M300.6,47.6c-2.5-2-5.5-3-8.7-3c-11.7,0-19.1,9.5-19.1,20.3s7.4,20.3,19.1,20.3c3.1,0,6.2-1,8.7-3v2.4h11.9
	V28.7h-11.9V47.6z M300.6,71.1c-1.5,2.2-4.1,3.4-6.7,3.3c-5.7,0-9.1-4.3-9.1-9.5s3.4-9.5,9.1-9.5c2.6-0.1,5.2,1.2,6.7,3.3V71.1z"/>
<path class="st0" d="M339.8,44.6c-12.1,0-20.3,8.8-20.3,20.3c-0.1,11.1,8.7,20.2,19.8,20.3c0.1,0,0.2,0,0.3,0
	c7.2,0.1,13.9-3.4,17.8-9.5l-9.5-6.4c-1.6,3.2-4.9,5.1-8.4,5c-3.5,0-8-2.1-8.6-7.3h27.7c0.2-1.2,0.2-2.3,0.2-3.5
	C358.8,51.1,349.8,44.6,339.8,44.6z M331.1,60.1c1.1-4.7,5.2-6,8-6c3.7,0,7.1,1.7,7.9,5.5l0.1,0.5L331.1,60.1z"/>
<rect x="383.1" y="45.2" class="st0" width="12" height="39.4"/>
<path class="st0" d="M425.3,44.6c-3.3,0-6.5,1-9.1,3v-2.4h-11.9v39.4h11.9V58.8c1.8-2,4.4-3.3,7.1-3.4c5.2,0,7.2,4,7.2,9.3v19.9
	h11.9v-22C442.5,52,436.4,44.6,425.3,44.6z"/>
<path class="st0" d="M389.1,27c-3.9,0-7.1,3.2-7.1,7.1c0,3.9,3.2,7.1,7.1,7.1c3.9,0,7.1-3.2,7.1-7.1C396.2,30.2,393,27,389.1,27
	C389.1,27,389.1,27,389.1,27z"/>
</svg>
