<?xml version="1.0" encoding="utf-8"?>
<!-- Generator: Adobe Illustrator 26.5.0, SVG Export Plug-In . SVG Version: 6.00 Build 0)  -->
<svg version="1.1" id="Ebene_1" xmlns="http://www.w3.org/2000/svg" xmlns:xlink="http://www.w3.org/1999/xlink" x="0px" y="0px"
	 viewBox="0 0 116 88.9" style="enable-background:new 0 0 116 88.9;" xml:space="preserve">
<style type="text/css">
	.st0{fill:#2600FF;}
</style>
<g>
	<path class="st0" d="M10.5,30.9l40.9,0.3c6.4,0,7.5-0.1,8-0.9c0.5-0.8-0.3-1.8-1.1-3.1C53,19,54.1,3.2,66.1,0.3
		c9.3-2.1,11.1,5.5,12.1,13c0.6,2.9,0.9,5.8,1.8,8.3c2.9,6.6,8.7,12.2,15.2,16.7l11.8,1.1c5,2.4,9.8,10.2,8.9,23.2
		c-0.9,13.8-8.2,19.9-14.5,21l-13.6-3.8c-8.8,6.9-17,7.3-28.4,8.5c-2.6,0.3-5.6,0.6-9.7,0.5c-8-0.3-16-3.5-16-11.6
		c0-1.5,0.3-3,0.8-4.1c-1.6-2.2-2.3-4.1-2.3-6.6c0-2.5,0.7-4.7,1.5-6.3c-0.9-1.8-1.5-3.9-1.5-5.6c0-0.9,0.2-2.1,0.6-3.2l-22.5-0.8
		C-4.4,50.5-2.5,30.8,10.5,30.9z M51.4,38.1l-40.9-0.7c-5.3-0.1-5.7,6.3,0,6.6l31.1,2.1l0.5,5.4c-1.9,0.7-2.5,1.8-2.5,3.5
		c0,1.8,0.7,2.9,2.6,3.9v2.7c-2.1,1.6-2.6,3-2.6,4.8c0,1.5,0.8,3.1,2.7,4.5v2.6C41,74.9,41,75.9,41,77.2c0,3.1,3.3,4.1,8.9,4.3
		c3.7,0.1,6.1,0.2,8.8,0c12.1-1.4,19.1-1.6,27.4-9.4l15.4,4.5c3.5-1.3,6.8-5.1,7.5-14.4c0.7-9.4-1.5-14-4.2-16.1L92.9,45
		c-7.6-4.7-16.6-12.6-19.4-21c-1.1-3.2-1.6-6.7-2.1-9.6c-0.8-6.2-1-8-3.8-7.3c-6.5,1.4-6.9,10.6-3.3,17.4c2.6,4.9,4.1,7.5,2.3,10
		C64,38.1,57.9,38.3,51.4,38.1z"/>
</g>
</svg>
