<?xml version="1.0" encoding="utf-8"?>
<!-- Generator: Adobe Illustrator 26.5.0, SVG Export Plug-In . SVG Version: 6.00 Build 0)  -->
<svg version="1.1" id="Ebene_1" xmlns="http://www.w3.org/2000/svg" xmlns:xlink="http://www.w3.org/1999/xlink" x="0px" y="0px"
	 viewBox="0 0 392 367.2" style="enable-background:new 0 0 392 367.2;" xml:space="preserve">
<g>
	<path d="M0,186.8C0,69.4,78.4,0,196.3,0C313.6,0,392,69.4,392,186.8c0,112.6-78.4,180.5-195.7,180.5C78.4,367.2,0,299.4,0,186.8z
		 M196.3,335.7c99.5,0,157.8-50,157.8-148.9c0-103.1-58.4-155.2-157.8-155.2c-100,0-158.4,52.1-158.4,155.2
		C37.9,285.7,96.3,335.7,196.3,335.7z M196.3,283.1c98.4,0,122.1-75.8,122.1-112.1h-32.6c-2.6,20-11.1,75.2-89.5,75.2
		c-78.9,0-87.3-55.2-90-75.2H73.7C73.7,207.3,97.3,283.1,196.3,283.1z M148.9,93.7c18.9,0,31,12.1,31,32.1c0,21.1-12.1,32.6-31,32.6
		c-19,0-31.1-11.6-31.1-32.6C117.9,105.8,130,93.7,148.9,93.7z M243.6,93.7c18.9,0,31,12.1,31,32.1c0,21.1-12.1,32.6-31,32.6
		s-31-11.6-31-32.6C212.6,105.8,224.7,93.7,243.6,93.7z"/>
</g>
</svg>
