<?xml version="1.0" encoding="utf-8"?>
<!-- Generator: Adobe Illustrator 26.5.0, SVG Export Plug-In . SVG Version: 6.00 Build 0)  -->
<svg version="1.1" id="Ebene_1" xmlns="http://www.w3.org/2000/svg" xmlns:xlink="http://www.w3.org/1999/xlink" x="0px" y="0px"
	 viewBox="0 0 162 152" style="enable-background:new 0 0 162 152;" xml:space="preserve">
<style type="text/css">
	.st0{fill:#FFFFFF;}
</style>
<g>
	<path class="st0" d="M0.6,77.3c0-48.1,32.1-76.6,80.5-76.6c48.1,0,80.2,28.5,80.2,76.6c0,46.2-32.1,74-80.2,74
		C32.8,151.3,0.6,123.5,0.6,77.3z M81.1,138.3c40.8,0,64.7-20.5,64.7-61.1c0-42.3-23.9-63.6-64.7-63.6c-41,0-64.9,21.4-64.9,63.6
		C16.2,117.8,40.1,138.3,81.1,138.3z M55.9,81.6c2.6,7.8,11.7,14.7,25.2,14.7c13.6,0,22.6-6.9,25.2-14.7l12.7,6
		c-4.5,12.3-17.7,23.7-38,23.7c-20.3,0-33.4-11.4-38-23.7L55.9,81.6z M61.5,45.6c5.6,0,10.6,5,10.6,13.2c0,8.6-5,13.4-10.6,13.4
		c-5.6,0-10.6-4.7-10.6-13.4C50.9,50.5,55.9,45.6,61.5,45.6z M98.1,46.9c7.8,0,12.3,6.3,13.6,13.2l-3,2.4c-2.4-2.4-5.6-3.7-10.6-3.7
		c-4.7,0-8,1.1-10.1,3.2l-3.2-3.2C86.3,52.5,90.8,46.9,98.1,46.9z"/>
</g>
</svg>
